<svg xmlns="http://www.w3.org/2000/svg" xmlns:xlink="http://www.w3.org/1999/xlink" width="526.375" height="517.831" viewBox="0 0 526.375 517.831">
    <defs>
        <linearGradient id="linear-gradient" x1="-1.02" x2="-1.02" y1="1" gradientUnits="objectBoundingBox">
            <stop offset="0" stop-color="gray" stop-opacity=".251"/>
            <stop offset=".54" stop-color="gray" stop-opacity=".122"/>
            <stop offset="1" stop-color="gray" stop-opacity=".102"/>
        </linearGradient>
        <linearGradient id="linear-gradient-2" x1="0" x2="1.001" y1=".5" y2=".5" xlink:href="#linear-gradient"/>
        <style>
            .cls-7{fill:#6c63ff}.cls-15,.cls-6{opacity:.1}.cls-3{fill:#3a3768}.cls-4{fill:#e6e8ec}.cls-9{fill:#ee8e9e}.cls-11,.cls-15{fill:#3f3d56}.cls-12{opacity:.05}.cls-13{fill:#e8eaf2}.cls-14{fill:#303d5c}
        </style>
    </defs>
    <g id="undraw_email_campaign_qa8y" transform="translate(-10.001 139.825)">
        <path id="Path_43016" fill="#6c63ff" d="M340.837 102.524c-33.745-1.169-65.887-12.065-96.576-23.986S183.167 53.416 150.233 47.1c-21.186-4.062-45.414-4.635-62.482 6.722-16.416 10.91-21.736 29.8-24.587 47.305-2.147 13.169-3.41 27.018 2.469 39.363 4.085 8.562 11.338 15.759 16.355 23.958 17.445 28.532 5.124 63.721-13.8 91.578-8.851 13.071-19.16 25.537-26 39.447s-10.011 29.855-4.025 44.044c5.939 14.068 20.082 24.633 35.4 32.063 31.122 15.093 67.8 19.416 103.559 21.861 79.163 5.413 158.751 3.07 238.124.722 29.375-.871 58.876-1.752 87.776-6.293 16.043-2.52 32.608-6.522 44.254-16.188 14.79-12.27 18.456-33.046 8.543-48.446-16.621-25.8-62.584-32.212-74.2-59.906-6.4-15.242.172-32.226 9.466-46.36 19.938-30.33 53.356-56.939 55.117-91.6 1.211-23.809-14.855-47.655-39.693-58.918-26.04-11.809-62.142-10.323-81.353 9.223-19.764 20.141-54.524 27.883-84.319 26.849z" data-name="Path 43016" opacity="0.1" transform="translate(-25 -184.264)"/>
        <g id="Group_12370" data-name="Group 12370" opacity="0.9" transform="translate(207.058 13.878)">
            <rect id="Rectangle_3564" width="4.951" height="40.83" class="cls-3" data-name="Rectangle 3564" rx="2.29" transform="translate(164.744 76.415)"/>
            <rect id="Rectangle_3565" width="2.778" height="13.443" class="cls-3" data-name="Rectangle 3565" rx="1.389" transform="translate(.1 44.427)"/>
            <rect id="Rectangle_3566" width="3.132" height="23.4" class="cls-3" data-name="Rectangle 3566" rx="1.566" transform="translate(0 69.036)"/>
            <rect id="Rectangle_3567" width="2.982" height="23.6" class="cls-3" data-name="Rectangle 3567" rx="1.491" transform="translate(.05 100.619)"/>
            <rect id="Rectangle_3568" width="165.743" height="336.847" class="cls-3" data-name="Rectangle 3568" rx="13" transform="translate(1.674)"/>
            <rect id="Rectangle_3569" width="23.145" height="4.701" class="cls-4" data-name="Rectangle 3569" rx="2.35" transform="translate(68.556 10.061)"/>
            <circle id="Ellipse_512" cx="2.668" cy="2.668" r="2.668" class="cls-4" data-name="Ellipse 512" transform="translate(95.198 9.742)"/>
        </g>
        <path id="Path_43017" fill="#6c63ff" d="M585.447 146.1h-18.984v2.288a10.836 10.836 0 0 1-10.841 10.836h-60.488a10.841 10.841 0 0 1-10.841-10.836V146.1H466.5a13.164 13.164 0 0 0-13.164 13.164v292.969A13.164 13.164 0 0 0 466.5 465.4h118.947a13.164 13.164 0 0 0 13.164-13.164V159.264a13.164 13.164 0 0 0-13.164-13.164z" data-name="Path 43017" opacity="0.5" transform="translate(-234.372 -123.444)"/>
        <path id="Rectangle_3570" d="M0 0H145.386V13.419H0z" class="cls-4" data-name="Rectangle 3570" transform="translate(219.088 45.111)"/>
        <path id="Rectangle_3571" d="M0 0H12.304V1.119H0z" class="cls-3" data-name="Rectangle 3571" transform="translate(223.564 47.904)"/>
        <path id="Rectangle_3572" d="M0 0H12.304V1.119H0z" class="cls-3" data-name="Rectangle 3572" transform="translate(223.564 51.261)"/>
        <path id="Rectangle_3573" d="M0 0H12.304V1.119H0z" class="cls-3" data-name="Rectangle 3573" transform="translate(223.564 54.618)"/>
        <path id="Path_43018" d="M717.814 200.78h-.455l-.175-.14a3.826 3.826 0 0 0 .889-2.448 3.717 3.717 0 1 0-3.7 3.742 3.837 3.837 0 0 0 2.438-.894l.17.145v.46l2.868 2.878.859-.864zm-3.437 0a2.573 2.573 0 1 1 1.828-.757 2.588 2.588 0 0 1-1.828.757z" class="cls-3" data-name="Path 43018" transform="translate(-363.132 -147.665)"/>
        <circle id="Ellipse_513" cx="6.15" cy="6.15" r="6.15" class="cls-4" data-name="Ellipse 513" transform="translate(223.564 76.984)"/>
        <path id="Rectangle_3574" d="M0 0H85.557V3.357H0z" class="cls-4" data-name="Rectangle 3574" transform="translate(249.007 89.284)"/>
        <path id="Rectangle_3575" d="M0 0H85.557V3.357H0z" class="cls-4" data-name="Rectangle 3575" transform="translate(249.287 96.552)"/>
        <path id="Rectangle_3576" d="M0 0H85.557V3.357H0z" class="cls-4" data-name="Rectangle 3576" transform="translate(249.567 103.826)"/>
        <circle id="Ellipse_514" cx="6.15" cy="6.15" r="6.15" class="cls-4" data-name="Ellipse 514" transform="translate(223.564 118.923)"/>
        <path id="Rectangle_3577" d="M0 0H85.557V3.357H0z" class="cls-4" data-name="Rectangle 3577" transform="translate(249.007 131.223)"/>
        <path id="Rectangle_3578" d="M0 0H85.557V3.357H0z" class="cls-4" data-name="Rectangle 3578" transform="translate(249.287 138.491)"/>
        <path id="Rectangle_3579" d="M0 0H85.557V3.357H0z" class="cls-4" data-name="Rectangle 3579" transform="translate(249.567 145.76)"/>
        <circle id="Ellipse_515" cx="6.15" cy="6.15" r="6.15" class="cls-4" data-name="Ellipse 515" transform="translate(223.564 160.862)"/>
        <path id="Rectangle_3580" d="M0 0H85.557V3.357H0z" class="cls-4" data-name="Rectangle 3580" transform="translate(249.007 173.162)"/>
        <path id="Rectangle_3581" d="M0 0H85.557V3.357H0z" class="cls-4" data-name="Rectangle 3581" transform="translate(249.287 180.43)"/>
        <path id="Rectangle_3582" d="M0 0H85.557V3.357H0z" class="cls-4" data-name="Rectangle 3582" transform="translate(249.567 187.699)"/>
        <circle id="Ellipse_516" cx="6.15" cy="6.15" r="6.15" class="cls-4" data-name="Ellipse 516" transform="translate(223.564 202.801)"/>
        <path id="Rectangle_3583" d="M0 0H85.557V3.357H0z" class="cls-4" data-name="Rectangle 3583" transform="translate(249.007 215.101)"/>
        <path id="Rectangle_3584" d="M0 0H85.557V3.357H0z" class="cls-4" data-name="Rectangle 3584" transform="translate(249.287 222.37)"/>
        <path id="Rectangle_3585" d="M0 0H85.557V3.357H0z" class="cls-4" data-name="Rectangle 3585" transform="translate(249.567 229.638)"/>
        <circle id="Ellipse_517" cx="6.15" cy="6.15" r="6.15" class="cls-4" data-name="Ellipse 517" transform="translate(223.564 244.74)"/>
        <path id="Rectangle_3586" d="M0 0H85.557V3.357H0z" class="cls-4" data-name="Rectangle 3586" transform="translate(249.007 257.04)"/>
        <path id="Rectangle_3587" d="M0 0H85.557V3.357H0z" class="cls-4" data-name="Rectangle 3587" transform="translate(249.287 264.309)"/>
        <path id="Rectangle_3588" d="M0 0H85.557V3.357H0z" class="cls-4" data-name="Rectangle 3588" transform="translate(249.567 271.577)"/>
        <circle id="Ellipse_518" cx="6.15" cy="6.15" r="6.15" class="cls-4" data-name="Ellipse 518" transform="translate(223.564 286.679)"/>
        <path id="Rectangle_3589" d="M0 0H85.557V3.357H0z" class="cls-4" data-name="Rectangle 3589" transform="translate(249.007 298.979)"/>
        <path id="Rectangle_3590" d="M0 0H85.557V3.357H0z" class="cls-4" data-name="Rectangle 3590" transform="translate(249.287 306.248)"/>
        <path id="Rectangle_3591" d="M0 0H85.557V3.357H0z" class="cls-4" data-name="Rectangle 3591" transform="translate(249.567 313.517)"/>
        <circle id="Ellipse_519" cx="15.657" cy="15.657" r="15.657" class="cls-6" data-name="Ellipse 519" transform="translate(319.182 301.217)"/>
        <circle id="Ellipse_520" cx="13.978" cy="13.978" r="13.978" class="cls-7" data-name="Ellipse 520" transform="translate(320.861 302.896)"/>
        <path id="Path_43019" d="M321.424 158.366l-27.342 14.772a.57.57 0 0 0 .04 1l4.666 1.753a1.134 1.134 0 0 1 .614.574l3.622 7.464c.07.33.679.415.684.08l-.555-6.165a2.219 2.219 0 0 1 .5-1.249l14.178-13.888a.35.35 0 0 1 .31-.09.325.325 0 0 1 .175.5L306.1 178.134a2.722 2.722 0 0 0-.5 1.229l-.7 5.325c.06.465.425.639.714.225l2.633-3.092a.55.55 0 0 1 .774-.13l6.784 4.946a.549.549 0 0 0 .864-.335l5.565-27.322a.555.555 0 0 0-.8-.614z" class="cls-7" data-name="Path 43019" transform="translate(-154.536 -129.55)"/>
        <path id="Path_43020" d="M899.336 169.946l-27.342 14.792a.569.569 0 0 0 .045 1l4.661 1.762a1.084 1.084 0 0 1 .614.575l3.627 7.459c.07.33.674.42.685.085l-.555-6.17a2.187 2.187 0 0 1 .5-1.244l14.173-13.888a.34.34 0 0 1 .31-.09.325.325 0 0 1 .18.5l-12.224 14.947a2.733 2.733 0 0 0-.5 1.234l-.734 5.325c.06.465.425.644.719.225l2.633-3.087a.549.549 0 0 1 .774-.13l6.784 4.941a.544.544 0 0 0 .859-.335l5.565-27.322a.554.554 0 0 0-.8-.614z" class="cls-7" data-name="Path 43020" transform="translate(-443.741 -135.325)"/>
        <path id="Path_43021" d="M570.353 61.653l-18.669 10.1a.39.39 0 0 0 .025.7l3.187 1.2a.765.765 0 0 1 .42.39l2.5 5.1c.05.225.465.285.47.06l-.38-4.216a1.528 1.528 0 0 1 .34-.849l9.682-9.492a.23.23 0 0 1 .21-.06.22.22 0 0 1 .12.355l-8.343 10.206a1.87 1.87 0 0 0-.325.839l-.5 3.637c.04.32.285.44.5.155l1.8-2.108a.375.375 0 0 1 .5-.09l4.631 3.377a.375.375 0 0 0 .59-.23l3.8-18.654a.375.375 0 0 0-.545-.42z" class="cls-7" data-name="Path 43021" transform="translate(-283.483 -81.156)"/>
        <path id="Path_43022" d="M783.028 42.633l-18.669 10.1a.39.39 0 0 0 .025.694l3.187 1.2a.754.754 0 0 1 .42.395l2.473 5.091c.05.225.465.285.47.06l-.36-4.211a1.534 1.534 0 0 1 .34-.854l9.682-9.492a.23.23 0 0 1 .21-.06.22.22 0 0 1 .12.355l-8.353 10.216a1.87 1.87 0 0 0-.325.839l-.5 3.642c.04.315.29.435.5.15l1.8-2.108a.375.375 0 0 1 .525-.09l4.636 3.377a.37.37 0 0 0 .585-.23l3.772-18.654a.375.375 0 0 0-.544-.42z" class="cls-7" data-name="Path 43022" transform="translate(-389.914 -71.643)"/>
        <path id="Path_43023" d="M887.736 297.836l-55.113-4.551a1 1 0 0 0-.929 1.559l5.241 7.156a1.954 1.954 0 0 1 .36 1.454l-1.858 14.637c-.215.554.6 1.279.939.789l5.176-9.752a3.9 3.9 0 0 1 1.953-1.369l34.62-6.9a.615.615 0 0 1 .545.165.58.58 0 0 1-.24.949l-32.737 10.406a4.886 4.886 0 0 0-1.913 1.369l-6.27 7.224c-.36.754 0 1.369.849 1.034l6.929-2.043a1 1 0 0 1 1.279.56l5.3 13.958a1 1 0 0 0 1.614.34l34.855-35.285a1 1 0 0 0-.595-1.694z" class="cls-7" data-name="Path 43023" transform="translate(-423.623 -197.097)"/>
        <path id="Path_43024" fill="url(#linear-gradient)" d="M646.1 383.544a8.9 8.9 0 0 0 1.878 1.9c.465.385.944.779 1.444 1.129.14.1.285.195.43.29 0 .025-.03.05-.04.08a1.134 1.134 0 0 0-.13.694 1.5 1.5 0 0 0 .535.719 7.394 7.394 0 0 1 2.253 4.072c.17.9-.44 1.873-.4 2.793a8.131 8.131 0 0 0 .71 2.608 14.079 14.079 0 0 0 3.1 5.365 17.346 17.346 0 0 0 3.472 8.558 27.828 27.828 0 0 0 5.86 5.136 11.382 11.382 0 0 0 2.163 1.359 12.231 12.231 0 0 0 2.143.575 110.5 110.5 0 0 0 18.829 2.128q.265 5.645.23 11.285a4.657 4.657 0 0 1-.26 1.823 8.1 8.1 0 0 1-1.089 1.529c-1.444 1.918-1.5 4.526-1.4 6.929a63.8 63.8 0 0 0 1 8.383c.654 3.547.055 7.464 1.314 10.841.5 1.334 1 2.663 1.5 4a3.53 3.53 0 0 1 .295 1.184 5.219 5.219 0 0 1-1 2.378 6.889 6.889 0 0 0-.874 3.632.755.755 0 0 0 .1.4c.165.22.5.2.769.16a32.377 32.377 0 0 1 3.337-.31 6.121 6.121 0 0 0-.539.794 11.69 11.69 0 0 0-.709 1.459 13.806 13.806 0 0 0-.949 2.608 3.191 3.191 0 0 0-.095.4c-.06.27-.115.545-.16.814a26.969 26.969 0 0 0-.295 4.8 50.8 50.8 0 0 1-.595 7.024c-.41 1.294.1 3.362.6 5.335a12.627 12.627 0 0 0 .724 4 24.088 24.088 0 0 0 .5 4.216q2.593 14.607 5.5 29.145c.175.844.34 1.684.565 2.5a20.444 20.444 0 0 0 3.742 7.4 33.629 33.629 0 0 1 3.907 6.255c-.115.529-.235 1.059-.36 1.584-1.1 4.641-2.553 9.217-3.057 13.958a19.351 19.351 0 0 1-1 5.58 8.552 8.552 0 0 0-1 2.7 3 3 0 0 0 .415 1.754c-.13.095-.255.195-.375.295l-.2.17c-1.419 1.129-3.322 1.359-5.071 1.814s-3.632 1.379-4.171 3.117a2.743 2.743 0 0 0-.085.335 4.419 4.419 0 0 0 2 4.236 11.225 11.225 0 0 0 5 1.534 16.262 16.262 0 0 1 5.141 1.179c1.369.679 2.523 1.793 4 2.283l.255.075c-.325.195-.654.385-1 .56a15.045 15.045 0 0 1-4.791 1.5c-1.688.235-3.707.345-4.576 1.818a3.241 3.241 0 0 0 .829 3.822 7.937 7.937 0 0 0 3.817 1.689 69.429 69.429 0 0 0 9.492 1.179l3.1.235c3 .23 6.055.465 9.092.5a62.634 62.634 0 0 0 11.18-.974 1.219 1.219 0 0 0 .889-.429 1.269 1.269 0 0 0 .135-.709 54.64 54.64 0 0 0-1.419-11.27c-.255-1.109-1.768.4-2.618 1.364-.11-.555-.24-1.1-.385-1.639l.664-.315a2.393 2.393 0 0 0 1.219-1 2.443 2.443 0 0 0 .13-1.174c-.12-2.438-.27-4.966-1.429-7.109a15.063 15.063 0 0 0-2.828-3.442 131.329 131.329 0 0 0-2.768-22.8c-.859-3.822-1.923-7.683-4.131-10.916-.275-.4-.574-.809-.874-1.214a98.182 98.182 0 0 0-1.334-10.956 2.829 2.829 0 0 1 0-1.459 4.5 4.5 0 0 1 .8-1.109c1.329-1.714.784-4.151.63-6.32a30.182 30.182 0 0 1 1.244-9.242q1.359-5.615 2.7-11.235a18.2 18.2 0 0 1 .949-3.112 30.734 30.734 0 0 1 2.438-3.927 22.145 22.145 0 0 0 3.387-13.344c.5.18 1 .365 1.529.565.375-3.137-.949-6.7 0-9.647a12.4 12.4 0 0 0 3.827-4.556c.739-1.659.949-3.527 1.723-5.171a15.946 15.946 0 0 0 1.309-2.773c.385-1.5-.095-3.057-.075-4.591.05-3.342 2.5-6.445 1.948-9.747-.25-1.569-1.159-3-1.109-4.611a7.718 7.718 0 0 1 .644-2.5c1.838-4.871 3.652-10.056 2.708-15.182a17.178 17.178 0 0 1-.594-3.947c.08-1.524.8-3 .589-4.521a3.431 3.431 0 0 0-.679-1.584 18.987 18.987 0 0 0 1.674-3.207 4.589 4.589 0 0 0 .445-2.048 3.627 3.627 0 0 0-1.444-2.438 14.614 14.614 0 0 0-2.5-1.454 2.038 2.038 0 0 1-.734-.525 5.359 5.359 0 0 1-.415-.789c-.5-.854-1.564-1.124-2.408-1.639-3.047-1.858-2.753-6.649-5.355-9.1a5.205 5.205 0 0 0-6.494-.345 1.593 1.593 0 0 1-.919.455 1.764 1.764 0 0 1-.889-.5 3.582 3.582 0 0 0-2.2-.61 21.085 21.085 0 0 1-.659-5.83h.235a3.082 3.082 0 0 0 .909-.1c1.339-.385 2.1-1.768 2.648-3.057a23.209 23.209 0 0 0 1.174-3.357c.03-.11.055-.22.08-.325 2.563 1.8 5.54 3.682 6.25 3.287 1.314-.724-5.87-5.835-5.87-5.835a5.719 5.719 0 0 0 1.5-3.3 17.93 17.93 0 0 0 .06-7.219 8.524 8.524 0 0 0-4.122-5.7 9.879 9.879 0 0 1-2.793-1.584 1.8 1.8 0 0 1-.27-.37.931.931 0 0 1-.11-.195 2.728 2.728 0 0 0-.3-.589c-.395-.455-1.109-.315-1.7-.245h-.515c-2.128.045-4.191-1.144-6.344-1.144-2.363 0-4.371 1.369-6.45 2.308-.42.19-.819.365-1.194.54a5.39 5.39 0 0 0-3 2.723 4.221 4.221 0 0 0-.864 1.674 3.94 3.94 0 0 0-.11.859 14.293 14.293 0 0 0 6.424 23.979c.05.14.1.28.145.42a12.023 12.023 0 0 1 .624 4v.285a10.846 10.846 0 0 0-3.082 1.254 5.96 5.96 0 0 0-2.6 3.192 3.108 3.108 0 0 0-.08.3 8.222 8.222 0 0 0-2.348-.4 2.521 2.521 0 0 0-2 .6 1.844 1.844 0 0 0-.38.774c-.275.255-.33.694-.5 1.029-.6 1.054-2.163.709-3.337 1-1.274.315-2.278 1.5-3.592 1.5a6.134 6.134 0 0 0-1.5-.055c-.5.12-.879.794-.5 1.134a1.594 1.594 0 0 0-1.5.724c-.36.47-.6 1.029-1 1.469a1.529 1.529 0 0 0-1.559-.6 5.786 5.786 0 0 0-1.644.649 2.363 2.363 0 0 1-.724.255 3.122 3.122 0 0 1-.884-.08 7.064 7.064 0 0 0-4.136.58c-1.139.539-2.233-.45-3.5-.53a1.954 1.954 0 0 1-1.279-.395 2.5 2.5 0 0 1-.5-1 5 5 0 0 0-3.657-3.237 4.256 4.256 0 0 0-2.5-5.25 4.541 4.541 0 0 0-1.559-3.957 7.3 7.3 0 0 1-.789-.62 3.787 3.787 0 0 1-.724-1.339l-1.109-2.937c-.5-.1-.874-.3-1.339-.385v-.3a9.635 9.635 0 0 0-.5-2.947 16.507 16.507 0 0 0-2.368-4.311 12.421 12.421 0 0 0-3.807-3.827 13.658 13.658 0 0 0-1.624-.749l-2.858-1.179a1.39 1.39 0 0 0-.5-.14c-.769 0-.909 1.189-.5 1.823.869 1.284 2.828 1.644 3.382 3.1a2.2 2.2 0 0 0-2.043 1.589 1.114 1.114 0 0 1-.275.644c-.25.2-.644.085-.934.24-.5.275-.285 1.034-.34 1.609a7.733 7.733 0 0 1-.5 1.449 3.1 3.1 0 0 0 .461 2.588zm68.5 200.329c0-.295-.04-.59-.065-.879.06.155.115.315.175.47.5 1.319 1.064 2.618 1.654 3.9l-.1-.055a4.938 4.938 0 0 0-1.364-.39 1.4 1.4 0 0 1-.38-.035 10.654 10.654 0 0 0 .08-3z" data-name="Path 43024" transform="translate(-330.555 -227.223)"/>
        <path id="Path_43025" d="M764.672 415.932c-.055 2.088-.759 4.107-.869 6.19 6.14.3 12.2-2.673 18.284-1.763a8.456 8.456 0 0 1-3.147-5.036 21.015 21.015 0 0 1-.6-7.733 3.18 3.18 0 0 1 .08-.43c.225-1 .809-2.463.649-3.267-.2-1.059-1.2-.849-2.108-.789a79.418 79.418 0 0 0-8.2 1.059c-.7.12-7.594 1.838-7.693 1.659a32.36 32.36 0 0 1 3 6.14 11.927 11.927 0 0 1 .604 3.97z" class="cls-9" data-name="Path 43025" transform="translate(-388.368 -252.027)"/>
        <path id="Path_43026" d="M646.111 403a8.994 8.994 0 0 0 1.878 1.888c.465.385.944.774 1.444 1.124a6.171 6.171 0 0 0 3.072 1.249c1.464.1 4.566-.759 5.5-2a3.607 3.607 0 0 0 .524-2.1 9.522 9.522 0 0 0-.5-2.932 16.364 16.364 0 0 0-2.368-4.286 12.633 12.633 0 0 0-3.807-3.807 14.5 14.5 0 0 0-1.624-.749l-2.857-1.169a1.389 1.389 0 0 0-.5-.14c-.769 0-.909 1.179-.5 1.813.869 1.279 2.828 1.634 3.382 3.082a2.193 2.193 0 0 0-2.043 1.579 1.1 1.1 0 0 1-.275.639c-.25.2-.644.09-.934.24-.5.275-.285 1.029-.34 1.6a7.751 7.751 0 0 1-.5 1.439 3.068 3.068 0 0 0 .448 2.53z" class="cls-9" data-name="Path 43026" transform="translate(-330.565 -245.539)"/>
        <path id="Path_43027" fill="#65617d" d="M803.446 824.886c-.47-.5-1.244-.395-1.9-.29a70.651 70.651 0 0 1-10.716.869c-.45-2.193.854-4.326 1.274-6.529a5.764 5.764 0 0 1 .425-1.649 3.767 3.767 0 0 1 2.713-1.638c1.933-.4 4.951-1.124 6.03.824 1.29 2.343 1.704 5.805 2.174 8.413z" data-name="Path 43027" transform="translate(-403.213 -458.27)"/>
        <path id="Path_43028" d="M735.518 807.508a11.218 11.218 0 0 0 5 1.529 16.257 16.257 0 0 1 5.141 1.174c1.369.674 2.523 1.783 4 2.268a8.279 8.279 0 0 0 4.121.065c1.629-.3 3.362-.9 4.241-2.3a7.081 7.081 0 0 0 .589-4.306c-.125-1.664-.245-3.327-.37-5a2.362 2.362 0 0 0-.31-1.2c-1.174-1.719-4.037.714-5.57.714a10.737 10.737 0 0 1-6.779-2.927 2.177 2.177 0 0 0-.53-.4c-.689-.31-1.384.265-2 .764l-.2.17c-1.419 1.124-3.322 1.354-5.071 1.808s-3.632 1.369-4.172 3.1a2.692 2.692 0 0 0-.085.33 4.329 4.329 0 0 0 1.995 4.211z" class="cls-11" data-name="Path 43028" transform="translate(-374.547 -449.19)"/>
        <path id="Path_43029" d="M735.518 807.508a11.218 11.218 0 0 0 5 1.529 16.257 16.257 0 0 1 5.141 1.174c1.369.674 2.523 1.783 4 2.268a8.279 8.279 0 0 0 4.121.065c1.629-.3 3.362-.9 4.241-2.3a7.081 7.081 0 0 0 .589-4.306c-.125-1.664-.245-3.327-.37-5a2.362 2.362 0 0 0-.31-1.2c-1.174-1.719-4.037.714-5.57.714a10.737 10.737 0 0 1-6.779-2.927 2.177 2.177 0 0 0-.53-.4c-.689-.31-1.384.265-2 .764l-.2.17c-1.419 1.124-3.322 1.354-5.071 1.808s-3.632 1.369-4.172 3.1a2.692 2.692 0 0 0-.085.33 4.329 4.329 0 0 0 1.995 4.211z" class="cls-12" data-name="Path 43029" transform="translate(-374.547 -449.19)"/>
        <path id="Path_43030" d="M735.347 808.088a11.219 11.219 0 0 0 5 1.529 16.257 16.257 0 0 1 5.141 1.174c1.369.674 2.523 1.783 4 2.268a8.275 8.275 0 0 0 4.121.065 6.808 6.808 0 0 0 4.241-2.862 7.083 7.083 0 0 0 .589-4.306c-.125-1.664-.245-3.327-.37-5a2.364 2.364 0 0 0-.31-1.2c-1.174-1.718-4.037.714-5.57.714a10.737 10.737 0 0 1-6.779-2.928 2.177 2.177 0 0 0-.529-.4c-.689-.31-1.384.265-2 .764a14.287 14.287 0 0 0 1.7 3.5 7.348 7.348 0 0 0 5.345 3.347 17.532 17.532 0 0 1 3.247.145c1.049.28 2 1.349 1.654 2.373s-1.644 1.209-2.7 1.264a11.974 11.974 0 0 1-4.411-.3c-.859-.29-1.644-.764-2.5-1.109-3.557-1.5-8.048-.649-10.991-3.142a6.607 6.607 0 0 0-.9-.69c-.771 1.632.658 3.86 2.022 4.794z" class="cls-13" data-name="Path 43030" transform="translate(-374.375 -449.2)"/>
        <path id="Path_43031" d="M735.347 808.088a11.219 11.219 0 0 0 5 1.529 16.257 16.257 0 0 1 5.141 1.174c1.369.674 2.523 1.783 4 2.268a8.275 8.275 0 0 0 4.121.065 6.808 6.808 0 0 0 4.241-2.862 7.083 7.083 0 0 0 .589-4.306c-.125-1.664-.245-3.327-.37-5a2.364 2.364 0 0 0-.31-1.2c-1.174-1.718-4.037.714-5.57.714a10.737 10.737 0 0 1-6.779-2.928 2.177 2.177 0 0 0-.529-.4c-.689-.31-1.384.265-2 .764a14.287 14.287 0 0 0 1.7 3.5 7.348 7.348 0 0 0 5.345 3.347 17.532 17.532 0 0 1 3.247.145c1.049.28 2 1.349 1.654 2.373s-1.644 1.209-2.7 1.264a11.974 11.974 0 0 1-4.411-.3c-.859-.29-1.644-.764-2.5-1.109-3.557-1.5-8.048-.649-10.991-3.142a6.607 6.607 0 0 0-.9-.69c-.771 1.632.658 3.86 2.022 4.794z" class="cls-12" data-name="Path 43031" transform="translate(-374.375 -449.2)"/>
        <path id="Path_43032" d="M774.122 594.847a21.866 21.866 0 0 1-3 16.136 30.171 30.171 0 0 0-2.438 3.907 18.038 18.038 0 0 0-.949 3.1l-2.7 11.2a30.245 30.245 0 0 0-1.244 9.192c.155 2.158.7 4.581-.629 6.29a4.5 4.5 0 0 0-.8 1.1 2.813 2.813 0 0 0 0 1.454c1.369 8.113 2.378 16.6-.09 24.449-2.233 7.114-2.363 14.987-4.266 22.211a4.92 4.92 0 0 1-1.179 2.463 3.9 3.9 0 0 1-1.773.844 13.062 13.062 0 0 1-8.373-1.329c-1.839-.849-3.817-2.343-3.657-4.361a9.26 9.26 0 0 1 1-2.688 18.506 18.506 0 0 0 1-5.55c.5-4.716 1.958-9.267 3.057-13.883s1.848-9.437.919-14.088a123.312 123.312 0 0 0-9.067-27.881 3.261 3.261 0 0 0-.829-1.244 8.858 8.858 0 0 1-1.174-.8 3.532 3.532 0 0 1-.535-1.464c-.41-1.469-1.624-2.558-2.438-3.847-2.058-3.267-1.4-7.454-1.329-11.31.075-3.752-.465-7.534.15-11.235s2.733-7.494 6.3-8.643a13.546 13.546 0 0 1 5.53-.26 107.738 107.738 0 0 1 28.514 6.237z" class="cls-14" data-name="Path 43032" transform="translate(-374.554 -344.806)"/>
        <path id="Path_43033" d="M774.122 594.847a21.866 21.866 0 0 1-3 16.136 30.171 30.171 0 0 0-2.438 3.907 18.038 18.038 0 0 0-.949 3.1l-2.7 11.2a30.245 30.245 0 0 0-1.244 9.192c.155 2.158.7 4.581-.629 6.29a4.5 4.5 0 0 0-.8 1.1 2.813 2.813 0 0 0 0 1.454c1.369 8.113 2.378 16.6-.09 24.449-2.233 7.114-2.363 14.987-4.266 22.211a4.92 4.92 0 0 1-1.179 2.463 3.9 3.9 0 0 1-1.773.844 13.062 13.062 0 0 1-8.373-1.329c-1.839-.849-3.817-2.343-3.657-4.361a9.26 9.26 0 0 1 1-2.688 18.506 18.506 0 0 0 1-5.55c.5-4.716 1.958-9.267 3.057-13.883s1.848-9.437.919-14.088a123.312 123.312 0 0 0-9.067-27.881 3.261 3.261 0 0 0-.829-1.244 8.858 8.858 0 0 1-1.174-.8 3.532 3.532 0 0 1-.535-1.464c-.41-1.469-1.624-2.558-2.438-3.847-2.058-3.267-1.4-7.454-1.329-11.31.075-3.752-.465-7.534.15-11.235s2.733-7.494 6.3-8.643a13.546 13.546 0 0 1 5.53-.26 107.738 107.738 0 0 1 28.514 6.237z" class="cls-12" data-name="Path 43033" transform="translate(-374.554 -344.806)"/>
        <path id="Path_43034" d="M733.5 620.166a23.473 23.473 0 0 0 .5 4.336q2.593 14.533 5.5 28.975c.175.839.34 1.674.565 2.5a20.306 20.306 0 0 0 3.742 7.359c8.143 10.146 8.847 24.884 13.264 37.118.295.829.594 1.659.909 2.5a61.9 61.9 0 0 0 2.728 6.08 1.714 1.714 0 0 0 .56.724 1.673 1.673 0 0 0 .889.175 25.9 25.9 0 0 0 11.49-2.613 2.378 2.378 0 0 0 1.219-1 2.432 2.432 0 0 0 .13-1.169c-.12-2.423-.27-4.941-1.429-7.069a14.984 14.984 0 0 0-2.828-3.427 129.965 129.965 0 0 0-2.768-22.681c-.859-3.8-1.923-7.643-4.131-10.861-1.628-2.373-3.962-4.711-3.677-7.574.13-1.259.654-2.823-.37-3.562-.445-.325-1.109-.365-1.409-.829a1.529 1.529 0 0 1-.2-.709 17.6 17.6 0 0 1 .365-5.875 31.642 31.642 0 0 0 .874-3.827 4.8 4.8 0 0 0-.964-3.7c-.055-2.613 0-5.325-.035-7.938a14.792 14.792 0 0 1 .37-4.431c.195-.685.5-1.339.65-2.038.549-2.5-.814-5.5.809-7.494a11.018 11.018 0 0 1 2.6-1.838 9.525 9.525 0 0 0 3.577-5.141 28.406 28.406 0 0 0 1-6.294 6.567 6.567 0 0 0 0-1.364 2.541 2.541 0 0 0-.185-.679c-.5-1.134-1.858-1.574-3.067-1.863a99.218 99.218 0 0 0-23.43-2.738c-2.918-2-4.561-1.279-5.795.829a21.335 21.335 0 0 0-1.654 4.032c-.565 1.7-.6 11.265-1.149 12.989-.705 2.203 1.35 6.759 1.35 9.097z" class="cls-14" data-name="Path 43034" transform="translate(-373.821 -346.605)"/>
        <path id="Path_43035" d="M821.124 471.106c.215 1.5-.5 3-.59 4.5a17.02 17.02 0 0 0 .594 3.927c.944 5.1-.869 10.256-2.708 15.1a7.629 7.629 0 0 0-.644 2.5c-.05 1.579.859 3.027 1.109 4.591.525 3.282-1.9 6.37-1.948 9.692 0 1.529.46 3.087.075 4.566a15.676 15.676 0 0 1-1.309 2.763c-.774 1.634-1 3.5-1.724 5.141-1.339 3-4.216 4.931-6.949 6.719-1.559-.5-3.242-1.134-4.1-2.533a6.272 6.272 0 0 1-.714-2.228 57.354 57.354 0 0 1-.549-10.316 64.34 64.34 0 0 1 .469-8.887c.555-3.747 1.769-7.359 2.643-11.046 1.1-4.651 1.663-9.457 3.377-13.918a46.942 46.942 0 0 1 6.324-10.806c.939-1.289 1.684-3.122 3.5-2.828a3.842 3.842 0 0 1 3.142 3.067z" class="cls-11" data-name="Path 43035" transform="translate(-408.681 -284.535)"/>
        <path id="Path_43036" d="M821.124 471.106c.215 1.5-.5 3-.59 4.5a17.02 17.02 0 0 0 .594 3.927c.944 5.1-.869 10.256-2.708 15.1a7.629 7.629 0 0 0-.644 2.5c-.05 1.579.859 3.027 1.109 4.591.525 3.282-1.9 6.37-1.948 9.692 0 1.529.46 3.087.075 4.566a15.676 15.676 0 0 1-1.309 2.763c-.774 1.634-1 3.5-1.724 5.141-1.339 3-4.216 4.931-6.949 6.719-1.559-.5-3.242-1.134-4.1-2.533a6.272 6.272 0 0 1-.714-2.228 57.354 57.354 0 0 1-.549-10.316 64.34 64.34 0 0 1 .469-8.887c.555-3.747 1.769-7.359 2.643-11.046 1.1-4.651 1.663-9.457 3.377-13.918a46.942 46.942 0 0 1 6.324-10.806c.939-1.289 1.684-3.122 3.5-2.828a3.842 3.842 0 0 1 3.142 3.067z" class="cls-12" data-name="Path 43036" transform="translate(-408.681 -284.535)"/>
        <path id="Path_43037" d="M761.07 405.82a32.364 32.364 0 0 1 3 6.14 14.068 14.068 0 0 0 3.387.41c4.426 0 7.564-2.5 10.166-5.7.225-1 1.629-1.973 1.469-2.778-.2-1.059-1.2-.849-2.108-.789a79.426 79.426 0 0 0-8.2 1.059c-.725.12-7.614 1.858-7.714 1.658z" class="cls-6" data-name="Path 43037" transform="translate(-388.368 -252.027)"/>
        <circle id="Ellipse_521" cx="14.188" cy="14.188" r="14.188" class="cls-9" data-name="Ellipse 521" transform="translate(364.878 131.582)"/>
        <path id="Path_43038" d="M737.93 594c2.453-.145 4.926-.05 7.389.05a25.686 25.686 0 0 1 4.591.469c1.863.425 3.607 1.274 5.445 1.8 2.942.859 6.045.894 9.1 1.2a52.283 52.283 0 0 1 5.955.929 2.537 2.537 0 0 0-.185-.679c-.5-1.134-1.858-1.574-3.067-1.864a99.213 99.213 0 0 0-23.43-2.738c-2.921-1.975-4.564-1.267-5.798.833z" class="cls-6" data-name="Path 43038" transform="translate(-376.789 -346.587)"/>
        <path id="Path_43039" d="M741.637 434.9c.62.714 1.449 1.5 2.368 1.269a3.27 3.27 0 0 0 .919-.5 13.865 13.865 0 0 1 5.565-1.594 81.792 81.792 0 0 0 11.49-2.578 11.715 11.715 0 0 1 3.392-.689c2.4 0 4.536 1.614 6.04 3.5s2.558 4.091 4.056 5.985c1.054 1.349 2.308 2.538 3.292 3.942 2.5 3.542 3 8.163 2.373 12.439s-2.348 8.313-4.041 12.289a42.365 42.365 0 0 1-3.3 6.659 15.876 15.876 0 0 1-1.274 9.882 9.922 9.922 0 0 0-1.289 2.938 7.426 7.426 0 0 0 .09 2.153l.724 5.136c.22 1.564.44 3.132.724 4.686.5 2.843 1.229 5.925-.09 8.493-1.579 3.077.08 7.029-.335 10.491a52.669 52.669 0 0 0-13.858-3.3c-3.047-.295-6.15-.335-9.092-1.189-1.838-.535-3.582-1.384-5.445-1.808a25.24 25.24 0 0 0-4.591-.47 54.607 54.607 0 0 0-10.186.23c-.275.04-.6.06-.769-.16a.735.735 0 0 1-.1-.4 6.8 6.8 0 0 1 .874-3.612 5.154 5.154 0 0 0 1-2.368 3.491 3.491 0 0 0-.295-1.179l-1.5-4c-1.259-3.357-.659-7.254-1.314-10.781a63.17 63.17 0 0 1-1-8.338c-.12-2.393-.045-5 1.4-6.9a7.852 7.852 0 0 0 1.089-1.5 4.617 4.617 0 0 0 .26-1.813q.045-7.179-.395-14.353c1.259-2.263 2.573-4.576 3.832-6.834a29.328 29.328 0 0 0 3.542-8.268c.39-1.958.375-3.972.654-5.945a2.589 2.589 0 0 1 .5-1.384 2.514 2.514 0 0 1 2-.6 8.818 8.818 0 0 1 2.69.471z" class="cls-11" data-name="Path 43039" transform="translate(-370.829 -265.921)"/>
        <path id="Path_43040" d="M653.31 418.936a6.17 6.17 0 0 0 3.072 1.249c1.464.1 4.566-.759 5.5-2a3.607 3.607 0 0 0 .525-2.1 2.585 2.585 0 0 0-.61-.115 15.982 15.982 0 0 0-4.761.19 5.36 5.36 0 0 0-3.7 2.773z" class="cls-6" data-name="Path 43040" transform="translate(-334.442 -258.449)"/>
        <path id="Path_43041" d="M700.73 449.955a9.9 9.9 0 0 1-3 2.823 9.656 9.656 0 0 1-4.656.714 111.75 111.75 0 0 1-19.483-2.138 12.225 12.225 0 0 1-2.143-.575 11.36 11.36 0 0 1-2.163-1.354 27.276 27.276 0 0 1-5.86-5.106 17.231 17.231 0 0 1-3.472-8.518 13.923 13.923 0 0 1-3.1-5.335 8.053 8.053 0 0 1-.709-2.588c-.04-.919.569-1.883.4-2.788a7.337 7.337 0 0 0-2.253-4.047 1.5 1.5 0 0 1-.535-.714 1.119 1.119 0 0 1 .13-.689 5.334 5.334 0 0 1 3.692-2.778 16.017 16.017 0 0 1 4.766-.19 11.04 11.04 0 0 1 1.559.415l1.109 2.922a3.765 3.765 0 0 0 .724 1.334 7.253 7.253 0 0 0 .789.615 4.5 4.5 0 0 1 1.559 3.937 4.232 4.232 0 0 1 2.5 5.226 5 5 0 0 1 3.657 3.217 2.44 2.44 0 0 0 .5 1 1.953 1.953 0 0 0 1.279.395c1.254.075 2.348 1.064 3.5.53a7.064 7.064 0 0 1 4.136-.58 3.119 3.119 0 0 0 .884.075 2.229 2.229 0 0 0 .724-.25 5.933 5.933 0 0 1 1.644-.649 1.539 1.539 0 0 1 1.559.6c.4-.435.639-1 1-1.459a1.6 1.6 0 0 1 1.5-.724c-.38-.335 0-1 .5-1.129a6.666 6.666 0 0 1 1.5.055c1.314 0 2.318-1.2 3.592-1.5 1.174-.29 2.733.055 3.337-1 .21-.37.255-.869.615-1.1a1.2 1.2 0 0 1 .794-.09 7.755 7.755 0 0 1 2.393.724c1.229 4.806.584 9.8-.355 14.667a12.866 12.866 0 0 1-2.608 6.045z" class="cls-11" data-name="Path 43041" transform="translate(-334.663 -258.799)"/>
        <path id="Path_43042" d="M746.474 516.234l6.11 12.319c-.659-1.139-2.053-1.584-3.152-2.313a8.383 8.383 0 0 1-3-4.047 24.979 24.979 0 0 1-1.154-5 4.516 4.516 0 0 1 0-2.588c.681.155.906 1.049 1.196 1.629z" class="cls-6" data-name="Path 43042" transform="translate(-380.367 -307.857)"/>
        <path id="Path_43043" d="M780.525 536.363a54.2 54.2 0 0 0 4.581 3.577c3.542 2.823 6.07 6.689 8.538 10.491a16.942 16.942 0 0 1 1.743 3.177c-.29.25-.724 0-1-.26l-4.8-4.216a10.653 10.653 0 0 1-1.6-1.619c-.834-1.124-1.2-2.5-1.958-3.7a14.555 14.555 0 0 0-2.918-3c-1.1-.944-6.165-5.226-4.931-6.889.887.476 1.62 1.714 2.345 2.439z" class="cls-6" data-name="Path 43043" transform="translate(-396.838 -317.525)"/>
        <path id="Path_43044" d="M759.282 429.063a14.238 14.238 0 0 1 5.081-1.674 10.648 10.648 0 0 1 3.227-.23c1 .125 1.958.5 2.962.565a13.356 13.356 0 0 0 4.127-.864 4.958 4.958 0 0 1 4.087.3 1.729 1.729 0 0 0 .889.475 1.584 1.584 0 0 0 .919-.45 5.226 5.226 0 0 1 6.494.345c2.6 2.438 2.308 7.2 5.355 9.052.844.5 1.918.779 2.408 1.634a5.872 5.872 0 0 0 .415.784 2.086 2.086 0 0 0 .734.5 14.564 14.564 0 0 1 2.5 1.444 3.607 3.607 0 0 1 1.444 2.428 4.551 4.551 0 0 1-.445 2.038 19.129 19.129 0 0 1-18.59 11.89 2.937 2.937 0 0 1-1.948-.6 3.692 3.692 0 0 1-.685-1.124c-1.434-3-4.121-5.226-5.835-8.083-1-1.7-1.669-3.607-2.733-5.281-1.6-2.543-4.052-4.421-6.445-6.245-1.349-1.029-2.853-2.108-4.546-2.033-1.5.065-2.608.145-2.053-1.709a5.924 5.924 0 0 1 2.638-3.157z" class="cls-11" data-name="Path 43044" transform="translate(-386.081 -263.625)"/>
        <path id="Path_43045" d="M759.282 429.063a14.238 14.238 0 0 1 5.081-1.674 10.648 10.648 0 0 1 3.227-.23c1 .125 1.958.5 2.962.565a13.356 13.356 0 0 0 4.127-.864 4.958 4.958 0 0 1 4.087.3 1.729 1.729 0 0 0 .889.475 1.584 1.584 0 0 0 .919-.45 5.226 5.226 0 0 1 6.494.345c2.6 2.438 2.308 7.2 5.355 9.052.844.5 1.918.779 2.408 1.634a5.872 5.872 0 0 0 .415.784 2.086 2.086 0 0 0 .734.5 14.564 14.564 0 0 1 2.5 1.444 3.607 3.607 0 0 1 1.444 2.428 4.551 4.551 0 0 1-.445 2.038 19.129 19.129 0 0 1-18.59 11.89 2.937 2.937 0 0 1-1.948-.6 3.692 3.692 0 0 1-.685-1.124c-1.434-3-4.121-5.226-5.835-8.083-1-1.7-1.669-3.607-2.733-5.281-1.6-2.543-4.052-4.421-6.445-6.245-1.349-1.029-2.853-2.108-4.546-2.033-1.5.065-2.608.145-2.053-1.709a5.924 5.924 0 0 1 2.638-3.157z" class="cls-12" data-name="Path 43045" transform="translate(-386.081 -263.625)"/>
        <path id="Path_43046" d="M746.132 832.171a7.944 7.944 0 0 0 3.817 1.679 69.381 69.381 0 0 0 9.492 1.169l3.1.24c3 .23 6.055.46 9.092.475a62.613 62.613 0 0 0 11.18-.969 1.22 1.22 0 0 0 .889-.43 1.245 1.245 0 0 0 .135-.7 54.106 54.106 0 0 0-1.384-11.211c-.35-1.5-3.062 1.878-3.187 2a3.091 3.091 0 0 1-2.463 1.309c-3.122.17-6.614-1.729-9.1-3.417a11.491 11.491 0 0 0-1.683-1.044 5.123 5.123 0 0 0-1.364-.39 8.25 8.25 0 0 0-4.641.944c-1.868.924-3.5 2.253-5.345 3.2a15.034 15.034 0 0 1-4.791 1.5c-1.689.23-3.707.345-4.576 1.809a3.251 3.251 0 0 0 .829 3.836z" class="cls-11" data-name="Path 43046" transform="translate(-380.315 -461.104)"/>
        <path id="Path_43047" d="M745.929 832.75a7.889 7.889 0 0 0 3.817 1.674 68.662 68.662 0 0 0 9.492 1.174l3.1.24c3 .23 6.055.46 9.092.474a62.6 62.6 0 0 0 11.18-.969 1.218 1.218 0 0 0 .889-.43 4.987 4.987 0 0 0 .694-1.264c-.065-3.777-1.089-7.543-1.938-11.225-.35-1.5-3.062 1.878-3.187 2a3.09 3.09 0 0 1-2.463 1.309c-3.122.17-6.614-1.729-9.1-3.417a11.5 11.5 0 0 0-1.684-1.044 5.11 5.11 0 0 0-1.364-.39c.4 2.248 3.622 4.961 5.285 5.785 3.362 1.669 7.359.839 11.111 1.034a1.5 1.5 0 0 1 .784.19 1.587 1.587 0 0 1 .465 1.474c-.03.894-.145 1.948-.924 2.4a2.687 2.687 0 0 1-1.244.26 175.751 175.751 0 0 1-27.7-1 15.082 15.082 0 0 1-4.5-1 11.877 11.877 0 0 1-2.618-1.683c-1.195.976-.216 3.458.813 4.408z" class="cls-13" data-name="Path 43047" transform="translate(-380.112 -461.123)"/>
        <path id="Path_43048" d="M758.366 377.226c.055 1.464-.949 4.311 1.794 3.5 1.638-.475 2.1-2.408 4.171-2s2.553 3 3.257 4.661a8.932 8.932 0 0 0 6.464 5.225 3.885 3.885 0 0 0 1.778 0c1.339-.385 2.1-1.763 2.648-3.042a23.178 23.178 0 0 0 1.174-3.337 14.17 14.17 0 0 0 .425-2.453 11.333 11.333 0 0 0 0-1.694 13.738 13.738 0 0 0-4.581-8.678 41 41 0 0 0-8.3-5.6 12.054 12.054 0 0 0-3.057-1.364 10.161 10.161 0 0 0-3.232-.135 11.331 11.331 0 0 0-4.111.964 5.755 5.755 0 0 0-1.449 1 4.352 4.352 0 0 0-1.254 2.093c-.525 2.153.849 4.1 1.963 5.8 1.006 1.568 2.235 3.172 2.31 5.06z" class="cls-11" data-name="Path 43048" transform="translate(-384.82 -231.606)"/>
        <path id="Path_43049" d="M670.35 448.264c.585-1.5 3.047-5.565 2.338-6.994a18.7 18.7 0 0 0-1.879 3.352c-.464 1.164-.084 2.698-.459 3.642z" class="cls-6" data-name="Path 43049" transform="translate(-342.97 -271.156)"/>
        <path id="Path_43050" d="M755.911 374.018c-1.119-1.7-2.5-3.647-1.968-5.8a4.5 4.5 0 0 1 1.6-2.388 3.809 3.809 0 0 0-.4 1c-.529 2.158.849 4.1 1.963 5.8 1 1.5 2.223 3.122 2.3 5 .055 1.469-.949 4.316 1.8 3.5 1.634-.475 2.093-2.413 4.171-2s2.548 3 3.252 4.661a8.927 8.927 0 0 0 6.464 5.22 3.887 3.887 0 0 0 1.779 0 2.628 2.628 0 0 0 .839-.41 3.633 3.633 0 0 1-2.028 1.793 3.886 3.886 0 0 1-1.778 0 8.942 8.942 0 0 1-6.469-5.226c-.7-1.674-1.159-4.221-3.252-4.661s-2.538 1.5-4.172 2c-2.748.794-1.743-2.053-1.8-3.5-.058-1.872-1.302-3.475-2.301-4.989z" class="cls-6" data-name="Path 43050" transform="translate(-384.744 -233.403)"/>
        <path id="Path_43051" d="M755.934 369.328a12.7 12.7 0 0 0 .844 1.2 14.431 14.431 0 0 0 1.938 2c.42.365.854.7 1.309 1.029a20.9 20.9 0 0 0 2.648 1.579 48.253 48.253 0 0 0 8.493 3.037l5.665 1.649c.694.5 1.968 1.474 3.372 2.458a14.146 14.146 0 0 0 .424-2.453 11.334 11.334 0 0 0 0-1.694 13.74 13.74 0 0 0-4.581-8.678 41.013 41.013 0 0 0-8.3-5.6 12.056 12.056 0 0 0-3.057-1.364 10.163 10.163 0 0 0-3.232-.135 11.331 11.331 0 0 0-4.112.964 5.752 5.752 0 0 0-1.449 1 5.548 5.548 0 0 0-.724 1.534 4.353 4.353 0 0 0 .762 3.474z" class="cls-6" data-name="Path 43051" transform="translate(-385.356 -231.631)"/>
        <path id="Path_43052" d="M755.937 365.887a12.624 12.624 0 0 0 .844 1.2 13.9 13.9 0 0 0 1.938 2 15.19 15.19 0 0 0 1.3 1.039 21.546 21.546 0 0 0 2.648 1.584 49.07 49.07 0 0 0 8.493 3.037l5.665 1.644c2 1.5 8.593 6.4 9.7 5.785 1.314-.719-5.87-5.805-5.87-5.805l-.33.25a5.261 5.261 0 0 0 1.838-3.5 17.755 17.755 0 0 0 .06-7.184 8.489 8.489 0 0 0-4.121-5.67 9.859 9.859 0 0 1-2.793-1.574 1.911 1.911 0 0 1-.27-.365 1.27 1.27 0 0 1-.11-.195 2.572 2.572 0 0 0-.3-.584c-.395-.455-1.109-.32-1.7-.245h-.19a2.363 2.363 0 0 1-.325 0c-2.128.05-4.191-1.134-6.345-1.134-2.363 0-4.371 1.364-6.45 2.293-.42.19-.819.365-1.194.54a5.155 5.155 0 0 0-3.247 3.432 4.31 4.31 0 0 0 .759 3.452z" class="cls-7" data-name="Path 43052" transform="translate(-385.358 -228.569)"/>
        <path id="Path_43053" d="M789.66 358.445a1.033 1.033 0 0 0-.13.5 1 1 0 0 0 .355.764 1.753 1.753 0 0 0 .894.315 6.494 6.494 0 0 0 .7.055 1.873 1.873 0 0 0 .919-.155 1.1 1.1 0 0 0 .16-.1 1.916 1.916 0 0 1-.27-.365c-.055.04-.11.03-.32 0a5.264 5.264 0 0 1-1.149-.195 1.322 1.322 0 0 1-.43-.21 1.258 1.258 0 0 1-.4-.619z" class="cls-6" data-name="Path 43053" transform="translate(-402.611 -229.7)"/>
        <path id="Path_43054" d="M802.377 396.475a2.7 2.7 0 0 1-1 .365 3.947 3.947 0 0 1-.759.12 4.207 4.207 0 0 1-1.859-.5" class="cls-6" data-name="Path 43054" transform="translate(-407.23 -248.732)"/>
        <path id="Rectangle_3592" d="M0 0H25.843V12.679H0z" class="cls-15" data-name="Rectangle 3592" transform="translate(110.531 141.289)"/>
        <path id="Rectangle_3593" d="M0 0H25.843V12.679H0z" class="cls-15" data-name="Rectangle 3593" transform="translate(110.531 176.884)"/>
        <path id="Rectangle_3594" d="M0 0H25.843V12.679H0z" class="cls-15" data-name="Rectangle 3594" transform="translate(110.531 212.478)"/>
        <path id="Rectangle_3595" d="M0 0H25.843V12.679H0z" class="cls-15" data-name="Rectangle 3595" transform="translate(110.531 248.073)"/>
        <path id="Path_43055" fill="url(#linear-gradient-2)" d="M286.073 407.3c.719-.46.435-1.689-.31-2.108a3.625 3.625 0 0 0-2.5-.12 1 1 0 0 0-.535-1.074v-.185a1.33 1.33 0 0 0-.29-1.893 3.816 3.816 0 0 0-2.328-.41 3.087 3.087 0 0 0-1-2.633.825.825 0 0 0-.54-.26c-.465 0-.619.624-.654 1.089a21.517 21.517 0 0 1-.6 3.6l-15.142 25.363c-1.689 2.438 3.557-4.856 1.868-2.418a21.838 21.838 0 0 1-3 3.707 14.726 14.726 0 0 1-3.372 2.253 3.967 3.967 0 0 1-2.3-.649 9.317 9.317 0 0 1-2.213-2.193 43.265 43.265 0 0 1-3.572-5.31 6.665 6.665 0 0 1-.819-1.9c-.23-1.049 0-2.193-.42-3.177a4.931 4.931 0 0 0-.649-1.034l-1.044-1.394a.243.243 0 0 1 0-.06c-.12-2.063-1.788-3.647-3.347-5-1.329-1.159-2.768-2.368-4.5-2.593-.939-.12-1.9.06-2.838-.06-.764-.095-1.5-.385-2.248-.5a9.875 9.875 0 0 0-2.208-.045l-.315-.285a8.772 8.772 0 0 0 3.947-3.317c.724-1.169 1.114-2.5 1.784-3.712.814-1.464 2-2.673 2.942-4.077a15.072 15.072 0 0 0 1.7-11.49 27.625 27.625 0 0 0-5.385-10.551c-4.681-6.055-12.534-8.3-19.928-7.114-.5.075-1 .17-1.474.275a18.672 18.672 0 0 0-3.622 1.159 9.188 9.188 0 0 0-3.952 3.082 6.684 6.684 0 0 0-.689 1.279 7.313 7.313 0 0 0-.335 1.049 10.851 10.851 0 0 0-.18 3.3c.03.375.07.754.115 1.129a4.353 4.353 0 0 0 .07.565c.05.375.1.754.155 1.129.08.565.155 1.129.21 1.684a10.522 10.522 0 0 1 .06 1.189v.295a4.679 4.679 0 0 1-.13.874 4.5 4.5 0 0 1-.145.46 5.8 5.8 0 0 1-.689 1.269 16.979 16.979 0 0 1-1.234 1.5l-.425.5-.42.5a17.433 17.433 0 0 0-1.524 2.063 9.8 9.8 0 0 0-.6 1.129 8.266 8.266 0 0 0-.34.909 6.548 6.548 0 0 0-.265 1.264c0 .11-.025.215-.03.325a5.451 5.451 0 0 0 0 .639 4.411 4.411 0 0 0 .07.629 4.832 4.832 0 0 0 .37 1.214c0 .055.055.11.08.16s.055.1.08.16.1.215.155.32a2.322 2.322 0 0 1 .16.5v.175a1.147 1.147 0 0 1 0 .185 2 2 0 0 1-.719 1.244c-.095.09-.2.175-.3.26l-.155.125-.315.25-.3.245a6 6 0 0 0-.734.734 27.072 27.072 0 0 0-8.163.8 11.141 11.141 0 0 1-2.932.53 1.459 1.459 0 0 1-1.269-.535 1.918 1.918 0 0 1-.13-1.164 10.047 10.047 0 0 0-.779-4.781 2.688 2.688 0 0 0-.784-1.139 1.109 1.109 0 0 0-1.294-.07 12.189 12.189 0 0 1-.335 8.133 26.831 26.831 0 0 1-1.878 3.527c-1.114 1.893-1.739 4.062-2.728 6.025 1.109 3.752.864 7.758 1.444 11.625a53.727 53.727 0 0 0 3.062 10.491c.954 2.583 2 5.271 4.057 7.089a3.722 3.722 0 0 0 2.5 1.089 4.412 4.412 0 0 0 1.963-.739 7.649 7.649 0 0 0 1.654-1.219 3.773 3.773 0 0 0 .5-.649 2.448 2.448 0 0 0 .365.919c1.189-2.563 2.5-5.071 3.9-7.524a6.45 6.45 0 0 0 1.169-.8c.025.085.045.175.065.265-.06.235-.12.475-.185.709s-.135.45-.2.669-.1.33-.155.5-.13.39-.2.584l-.24.635c-.06.15-.115.3-.18.45-.15.365-.3.729-.475 1.089a3.268 3.268 0 0 0 .415.17l.095.03a3.562 3.562 0 0 0 .385.095h.14l.29.03h.455a4.581 4.581 0 0 0 1.029-.18c.065.26.125.525.19.784a27.928 27.928 0 0 1 .939 5.35c.09 2.048-.265 4.126.125 6.145.2 1.044.609 2.048.754 3.107a12.915 12.915 0 0 1-.055 3l-.679 7.184a6.14 6.14 0 0 1-.614 2.533c-.34.584-.884 1.254-.545 1.833a11.91 11.91 0 0 1 1.714-.33c-.21.764-.4 1.529-.58 2.3a4.041 4.041 0 0 0-.135 1.773 11.253 11.253 0 0 1 .5 1.624 5.239 5.239 0 0 1-.859 2.463c-.859 2.078.055 4.421.964 6.494l2.688 6.1q1.1 2.5 2.208 5c.654 1.5 1.314 3 1.943 4.5a145.625 145.625 0 0 1 7.034 21.087 2.467 2.467 0 0 0 .36.914c.375.5 1.049.644 1.6.949a2.981 2.981 0 0 1 .33 4.761c.315 3.667-2.433 7.209-3.847 10.606-3.257 7.808-2.668 16.606-3.787 24.979l1.264-.739a1.669 1.669 0 0 1 .41.27c-.03.155-.06.31-.1.47a7.439 7.439 0 0 1-.814 2.028c-.734 1.269-1.858 2.393-2.028 3.847a23.509 23.509 0 0 0 .16 2.638v.245c-.11-.11-.28-.1-.54.1a3.207 3.207 0 0 0-.794 1.5c-.22.624-.395 1.264-.569 1.9l-.615 2.258a26.188 26.188 0 0 1-1.319 3.967 16.67 16.67 0 0 0-1.169 2.7 8.337 8.337 0 0 0-.2 2.313 7.035 7.035 0 0 0 .32 2.188 5.45 5.45 0 0 0 3.192 3.032 14.983 14.983 0 0 0 4.436.834 3.786 3.786 0 0 0 1.164-.03 3.2 3.2 0 0 0 1.134-.59c2.053-1.5 3.117-4.3 3.3-6.844a9.906 9.906 0 0 0-.28-1.554c.125-2.773-.28-5.56-.065-8.323.04.315.09.624.135.939l.5 3.1a.655.655 0 0 0-.17-.29 7.149 7.149 0 0 0-.18 3.557 20.821 20.821 0 0 0 1 3.447l.664 1.853a3.322 3.322 0 0 0 3.1 2.618 25.144 25.144 0 0 0 5.6.954 1.284 1.284 0 0 0 .739-.135 4.238 4.238 0 0 0 .33-.28 3.046 3.046 0 0 1 .54-.315 3.527 3.527 0 0 0 1.714-2.028 3.212 3.212 0 0 0-.315-2.628 6.037 6.037 0 0 0-.759-.919l-3.332-3.532a19.135 19.135 0 0 0-1.634-1.729.61.61 0 0 0-.535-.18c-.9-2.258-.789-4.906-.629-7.384.045-.739.45-2.278.615-3.537a5.629 5.629 0 0 0 1.768-.954 2.707 2.707 0 0 0 1-1.5c1.679-8.593 4.4-16.92 6.944-25.293.25-.824.5-1.654.744-2.5l.31-1.059c.08-.29.17-.579.25-.869.14-.5.275-.974.4-1.464.04-.13.075-.265.11-.395a.469.469 0 0 0 0-.08c.165-.6.32-1.2.475-1.8l.18-.689c.195-.764.38-1.534.565-2.3.025-.1.05-.215.07-.325a1.408 1.408 0 0 0-.055-.814 1.336 1.336 0 0 0-.195-.28c-.05-.06-.11-.125-.17-.185l-.185-.2a1.843 1.843 0 0 1-.34-.639V525c0-.23-.03-.5-.045-.744a7.592 7.592 0 0 1 .22-.969c.055-.19.12-.38.18-.57s.145-.5.225-.709a1.773 1.773 0 0 0 .445-1.2c.3-.754.629-1.5 1-2.218a6.75 6.75 0 0 0 .894-2.4 9.588 9.588 0 0 0-.29-2.278c-.5-3.167.969-6.26 2.058-9.272a41.167 41.167 0 0 0 1.813-6.8 14.415 14.415 0 0 1 1.5-5.191 7.793 7.793 0 0 0 .8-1.379 5.543 5.543 0 0 0 .215-1.574 17.255 17.255 0 0 1 1.534-6.23 3.667 3.667 0 0 0 .4-1.209.5.5 0 0 0 0-.085v-.12l.25-.035a33.133 33.133 0 0 0 .56-8.388 12.824 12.824 0 0 0-4.286-8.1h.05a2.632 2.632 0 0 0 1.224-2.378 4.626 4.626 0 0 0-1.724-3.627 1.764 1.764 0 0 1-.585-.6 1.824 1.824 0 0 1-.07-.789 4.027 4.027 0 0 0-2.5-3.727.919.919 0 0 1-.4-.235 1 1 0 0 1-.1-.709 4.361 4.361 0 0 0-2.1-4 6.849 6.849 0 0 0 .09-3.162 2.36 2.36 0 0 0-2.313-1.8c.859-2.343-.36-4.951-.035-7.424.14-1.059.565-2.078.619-3.147.05-.969-.195-2 .28-2.868s1.594-1.5 1.3-2.418c-.125-.4-.5-.669-.659-1.059s.5-1 .864-.759c.165-.125.33-.26.5-.395a8.178 8.178 0 0 0 .295 1.464c.235.8.6 1.554.849 2.348a19.458 19.458 0 0 0 1.109 3.642c1 1.778 3.032 2.658 4.431 4.136.819.864 1.4 1.928 2.248 2.773a12.445 12.445 0 0 0 2.1 1.574l4.5 2.917a5.094 5.094 0 0 0 1.539.764 2.628 2.628 0 0 0 3.1-2.228 2.947 2.947 0 0 1-1.109-.685.411.411 0 0 0 .19-.03 7.114 7.114 0 0 0 2.9-1.539c3.207-2.553 5.5-6.04 7.763-9.467 2.358-3.592 13.718-13.1 13.718-13.1v-3.857a13.913 13.913 0 0 0 3.782-3.217 4.172 4.172 0 0 0 .949-2.463 2.168 2.168 0 0 0-1.36-2.164zm-94.449 9.237q-.33 2.1-.8 4.176a40.6 40.6 0 0 1-1.344 4.716c-.06.16-.12.325-.175.5-.165-.3-.325-.6-.47-.9-.37-.764-.664-1.564-.959-2.358l-1.878-5.071a2.34 2.34 0 0 1-.125-2.023 2.268 2.268 0 0 1 1.074-.8 21.426 21.426 0 0 1 4.121-1.4 12.1 12.1 0 0 0 1.329-.35 19.814 19.814 0 0 0-.773 3.514zm2.078-6.325a.764.764 0 0 1 0-.734 1.624 1.624 0 0 1 .5-.34 1 1 0 0 0 .14-.1zm3.9-5.5a9.707 9.707 0 0 0-1.5 1.539 15.781 15.781 0 0 0-1.289 2 1.449 1.449 0 0 0-.535-1.474 3.041 3.041 0 0 1-.5-.33 1.024 1.024 0 0 1 .2-1.434 3 3 0 0 1 1.5-.5l2.243-.33c-.03.145-.075.33-.125.5zm21.052 163.155a8.2 8.2 0 0 0-.13-2c.28 0 .555 0 .829-.025z" data-name="Path 43055" transform="translate(-97.04 -234.217)"/>
        <path id="Path_43056" d="M229.6 370.623c-3.9.625-8.243 2.128-9.737 5.785-1.124 2.763-.255 5.875.035 8.847a6.764 6.764 0 0 1-.085 2.353 8.248 8.248 0 0 1-2.063 3.237 17.211 17.211 0 0 0-2.972 4.161 6.1 6.1 0 0 0-.2 5 3.672 3.672 0 0 1 .5 1.309c.045 1-1 1.659-1.8 2.308-2.928 2.423-2.8 6.839-2.828 10.646a53.835 53.835 0 0 1-5.091 22.481 6.874 6.874 0 0 0 7.693-1 25.691 25.691 0 0 1-1.749 5.036c2.5 1.2 5.465-.769 6.709-3.227s1.389-5.315 2.273-7.923 2.453-4.876 3.122-7.494a6.907 6.907 0 0 1 .889-2.5 6.543 6.543 0 0 1 1.559-1.329 15.207 15.207 0 0 0 5.5-7.494 30.437 30.437 0 0 0 9.222 1.064c3.092-.28 6.25-1.683 7.883-4.326.724-1.169 1.114-2.5 1.784-3.707.814-1.464 2-2.673 2.942-4.071a15.06 15.06 0 0 0 1.694-11.49 27.571 27.571 0 0 0-5.38-10.541c-4.664-6.066-12.512-8.314-19.9-7.125z" class="cls-14" data-name="Path 43056" transform="translate(-110.276 -235.648)"/>
        <path id="Path_43057" d="M202.011 462.12q-.33 2.1-.8 4.167a40.239 40.239 0 0 1-1.343 4.713 4.5 4.5 0 0 0-.425 2.168 3.9 3.9 0 0 0 .525 1.289c1.778 3.162 4.181 6.22 4.386 9.847a5.2 5.2 0 0 0 .5 2.628q2.068-4.436 4.556-8.658c1.734-2.948 3.667-5.92 4.166-9.3a17.614 17.614 0 0 0-.065-4.781 10.354 10.354 0 0 0-1.714-5.026c-1.179-1.544-4.411-3.867-6.494-3.387-2.473.575-2.982 4.357-3.292 6.34z" class="cls-7" data-name="Path 43057" transform="translate(-107.312 -278.383)"/>
        <path id="Path_43058" d="M330.32 467.675a16.3 16.3 0 0 0 9.557-7.369l5.5-7.928c1.3-1.878 2.638-3.857 2.917-6.125a20.177 20.177 0 0 0 5.5-12.449c.04-.465.195-1.074.659-1.084a.829.829 0 0 1 .54.255 3.087 3.087 0 0 1 1 2.633 3.642 3.642 0 0 1 2.323.4c.649.465.824 1.629.125 2a1 1 0 0 1 .7 1.134 3.622 3.622 0 0 1 2.5.115c.739.42 1.029 1.649.31 2.108a2.173 2.173 0 0 1 1.389 2.083 4.161 4.161 0 0 1-.949 2.458c-2.1 2.823-5.825 3.967-8.263 6.494a19.623 19.623 0 0 0-2.153 2.878l-7.074 10.761c-2.248 3.422-4.556 6.909-7.763 9.457a7.124 7.124 0 0 1-2.893 1.539 3.207 3.207 0 0 1-3.037-.844 4.98 4.98 0 0 1-.884-3.027c-.199-1.792.116-3.664-.004-5.489z" class="cls-9" data-name="Path 43058" transform="translate(-172.775 -266.877)"/>
        <path id="Path_43059" d="M270.23 795.875a6.053 6.053 0 0 1 .754.919 3.2 3.2 0 0 1 .32 2.623 3.561 3.561 0 0 1-1.714 2.028 3.023 3.023 0 0 0-.54.31 4.25 4.25 0 0 1-.33.28 1.33 1.33 0 0 1-.739.14 25.72 25.72 0 0 1-5.6-.954 4.489 4.489 0 0 1-2.308-1.084 4.435 4.435 0 0 1-.789-1.534l-.664-1.848a21.409 21.409 0 0 1-1-3.442 7.124 7.124 0 0 1 .18-3.552 1.069 1.069 0 0 1 .245.724 8.048 8.048 0 0 0 1.424 3.447 2.762 2.762 0 0 0 2.218 1.394 20.7 20.7 0 0 0 3.547.455 1.06 1.06 0 0 0 .5-.06.864.864 0 0 0 .4-.5 2.153 2.153 0 0 0 0-1.459c-.315-.9-1.2-1.5-1.624-2.348-.31-.634.125-1.329.764-.794a19.762 19.762 0 0 1 1.634 1.724z" class="cls-14" data-name="Path 43059" transform="translate(-136.359 -445.55)"/>
        <path id="Path_43060" d="M263.819 769.6c-.19 3-.325 6.19 1.309 8.693.585.9 1.369 1.654 2.038 2.5a2.966 2.966 0 0 1 .729 1.5 2.309 2.309 0 0 1-2 2.228 6.732 6.732 0 0 1-3.222-.465 7.824 7.824 0 0 1-2.733-1.289c-1.419-1.2-1.793-3.2-2.078-5.031l-.664-4.261a13.522 13.522 0 0 1-.24-3.1 13.734 13.734 0 0 1 .834-3.352l1.094-3.2a1.5 1.5 0 0 1 .5-.794 1.389 1.389 0 0 1 .829-.155c1.049.055 3.682.435 4.191 1.544.422.964-.512 4.036-.587 5.182z" class="cls-9" data-name="Path 43060" transform="translate(-136.093 -432.088)"/>
        <path id="Path_43061" d="M263.819 769.6c-.19 3-.325 6.19 1.309 8.693.585.9 1.369 1.654 2.038 2.5a2.966 2.966 0 0 1 .729 1.5 2.309 2.309 0 0 1-2 2.228 6.732 6.732 0 0 1-3.222-.465 7.824 7.824 0 0 1-2.733-1.289c-1.419-1.2-1.793-3.2-2.078-5.031l-.664-4.261a13.522 13.522 0 0 1-.24-3.1 13.734 13.734 0 0 1 .834-3.352l1.094-3.2a1.5 1.5 0 0 1 .5-.794 1.389 1.389 0 0 1 .829-.155c1.049.055 3.682.435 4.191 1.544.422.964-.512 4.036-.587 5.182z" class="cls-12" data-name="Path 43061" transform="translate(-136.093 -432.088)"/>
        <path id="Path_43062" d="M288.536 592.168a.5.5 0 0 1 0 .085 3.745 3.745 0 0 1-.4 1.209 17.3 17.3 0 0 0-1.534 6.22 5.5 5.5 0 0 1-.215 1.569 7.782 7.782 0 0 1-.8 1.379 14.831 14.831 0 0 0-1.5 5.186 40.465 40.465 0 0 1-1.813 6.794c-1.084 3-2.548 6.1-2.053 9.262a9.491 9.491 0 0 1 .29 2.273 6.749 6.749 0 0 1-.894 2.4c-.37.719-.7 1.459-1 2.213s-.6 1.644-.849 2.5a3.326 3.326 0 0 0 .185 3.047 3.917 3.917 0 0 1 .55.674 1.779 1.779 0 0 1 0 1.149q-.574 2.438-1.239 4.856c-.34 1.269-.7 2.528-1.074 3.787-2.738 9.2-5.84 18.309-7.683 27.736-.265 1.354-2 2.328-3.352 2.623a4.406 4.406 0 0 1-3.855-1.03l-.265-.265c-1.414-1.5-1.619-3.857-1.5-5.965.5-9.7 5.36-18.574 7.684-28a53.644 53.644 0 0 0 1.5-10.4c.545-11.71.759-24.079-2.548-35.325-.689-2.338-1.5-5-.27-7.079a7.091 7.091 0 0 1 3.662-2.678 23.56 23.56 0 0 1 18.269.465 6.575 6.575 0 0 1-.025.7 7.159 7.159 0 0 0 .365 3.227 4.03 4.03 0 0 1 .364 1.388z" class="cls-14" data-name="Path 43062" transform="translate(-137.375 -342.967)"/>
        <path id="Path_43063" d="M234.04 778.781l-.614 2.253a26.009 26.009 0 0 1-1.319 3.966 16.875 16.875 0 0 0-1.169 2.693 8.318 8.318 0 0 0-.2 2.308 6.888 6.888 0 0 0 .32 2.188 5.431 5.431 0 0 0 3.187 3.028 14.989 14.989 0 0 0 4.436.834 3.786 3.786 0 0 0 1.164-.03 3.217 3.217 0 0 0 1.129-.589c2.053-1.5 3.117-4.291 3.3-6.834a8.5 8.5 0 0 0-.35-1.744c-.16-.215-1.714.664-1.049 1.394 1 1.089-1.9.525-3.362.435a13.543 13.543 0 0 1-1.9-.315l-2.373-.5c-.774-.17-1.669-.435-1.943-1.179s.325-1.629.794-2.348c1.239-1.913 1.554-4.261 1.843-6.524.055-.445.609-3.322-.535-2.428a3.207 3.207 0 0 0-.794 1.5c-.215.618-.39 1.257-.565 1.892z" class="cls-14" data-name="Path 43063" transform="translate(-122.97 -438.272)"/>
        <path id="Path_43064" d="M277.956 680.549a3.367 3.367 0 0 1-.185-3.047c.11-.38.23-.759.355-1.134l-9.307-3.147c-.035.834-.07 1.669-.11 2.5a53.745 53.745 0 0 1-1.5 10.4c-2.323 9.422-7.209 18.3-7.683 27.976-.11 2.233.13 4.726 1.778 6.23a4.4 4.4 0 0 0 3.852 1.029c1.349-.295 3.087-1.269 3.352-2.628 1.843-9.422 4.941-18.529 7.683-27.736q1.284-4.286 2.313-8.643a1.763 1.763 0 0 0 0-1.144 3.491 3.491 0 0 0-.548-.656z" class="cls-12" data-name="Path 43064" transform="translate(-137.371 -387.23)"/>
        <path id="Path_43065" d="M239.293 758.011c-.734 1.264-1.858 2.388-2.028 3.842a23.336 23.336 0 0 0 .16 2.633 8.343 8.343 0 0 1-.385 2.148q-1.359 4.911-3.132 9.687a2.637 2.637 0 0 0-.245 1.314 2.287 2.287 0 0 0 1.539 1.534c2.213.949 4.711.884 7.119.784a3.73 3.73 0 0 0 2-.464 3.492 3.492 0 0 0 1.129-2.8c.165-3-.345-6.055 0-9.062.12-1.094.35-2.173.525-3.262a9.575 9.575 0 0 0-.14-4.546 10.621 10.621 0 0 0-1.7-2.863 8.933 8.933 0 0 0-2.368-2.358c-.28-.17-1.089-.684-1.374-.36-.145.165-.08.6-.1.809a7.532 7.532 0 0 1-.165.939 7.665 7.665 0 0 1-.835 2.025z" class="cls-9" data-name="Path 43065" transform="translate(-124.436 -427.719)"/>
        <path id="Path_43066" d="M270.092 595.89a2.554 2.554 0 0 0-.17 2.118c.31 1.289.824 2.5 1.244 3.777a52.192 52.192 0 0 1 1.6 6.864c.395 2.1 1.219 4.436.879 6.544a46.781 46.781 0 0 1 4.946 15.487c.19 1.389-2.9 3.187-2.838 4.591.115 2.783 2.338 3 .694 5.236-.08.11.615 2.6.5 2.708-.669.8-1.5 1.444-2.233 2.2a16.917 16.917 0 0 0-2.353 3.452c-4.246 7.658-10.376 16.351-8.493 24.9a1.5 1.5 0 0 1-.809 1.539 4.058 4.058 0 0 1-1.793.415h-.295c-1.414-1.5-1.619-3.857-1.5-5.965.5-9.7 5.36-18.574 7.683-28a53.637 53.637 0 0 0 1.5-10.4c.545-11.71.759-24.079-2.548-35.325-.689-2.338-1.5-5-.27-7.079a7.091 7.091 0 0 1 3.662-2.678 23.56 23.56 0 0 1 18.269.465 6.593 6.593 0 0 1-.025.7 7.158 7.158 0 0 0 .365 3.227 4.027 4.027 0 0 1 .365 1.4c0 .03.17-1.883.165-1.858-3.8.55-7.768 3.037-11.57 3.582a26.6 26.6 0 0 0-5.8 1.279 2.6 2.6 0 0 0-1.175.821z" class="cls-12" data-name="Path 43066" transform="translate(-137.34 -342.912)"/>
        <path id="Path_43067" d="M225.879 562.069q-.774 2.438-1.349 4.926a4.092 4.092 0 0 0-.14 1.768 10.128 10.128 0 0 1 .5 1.624 5.231 5.231 0 0 1-.854 2.463c-.859 2.073.055 4.411.959 6.464l2.688 6.1 2.208 5c.654 1.5 1.314 2.972 1.943 4.471a145.226 145.226 0 0 1 7.029 21.057 2.543 2.543 0 0 0 .36.919c.375.5 1.049.639 1.6.944a2.979 2.979 0 0 1 .33 4.756c.315 3.662-2.433 7.2-3.847 10.591-3.252 7.8-2.663 16.586-3.782 24.979l1.264-.734c1.214.555 1.169 2.273 1.823 3.437 1 1.749 3.372 2 5.375 1.863a4.091 4.091 0 0 0 1.793-.415 1.5 1.5 0 0 0 .809-1.539c-1.888-8.553 4.241-17.24 8.493-24.909a16.629 16.629 0 0 1 2.353-3.447c.719-.759 1.564-1.4 2.233-2.2 1.873-2.248 2.113-5.42 2-8.343a46.735 46.735 0 0 0-5.315-19.7c.335-2.108-.5-4.441-.879-6.539a51.781 51.781 0 0 0-1.594-6.844c-.42-1.264-.934-2.5-1.244-3.782a2.015 2.015 0 0 1 1.365-2.897 26.724 26.724 0 0 1 5.815-1.319l13.069-1.878a33.056 33.056 0 0 0 .56-8.378 12.889 12.889 0 0 0-9.212-10.781 1.957 1.957 0 0 0-1.709.11 68.03 68.03 0 0 0-34.645 2.233z" class="cls-14" data-name="Path 43067" transform="translate(-119.45 -329.853)"/>
        <path id="Path_43068" d="M242.417 417.8a6.435 6.435 0 0 1-.574 3.742 5.889 5.889 0 0 1-1.5 1.644 11.2 11.2 0 0 1-4.306 2.143 4.574 4.574 0 0 0-2.578 1.124c-.919 1.109-.3 2.783.5 4a10.44 10.44 0 0 0 5.65 4.671c1.928.525 4 .2 5.955.544 1.429.245 2.773.834 4.181 1.174a12.354 12.354 0 0 0 11.345-3.167c-2.093-1.609-4.266-3.317-5.35-5.725a8.123 8.123 0 0 1-.41-5.5c.5-1.789 1.634-3.527 1.284-5.345s-2.148-3.077-3.927-3.692a25.285 25.285 0 0 0-4.921-1c-.924-.125-6.774-1.419-7.139-.779-.2.36 1 2.5 1.159 2.967a11.191 11.191 0 0 1 .631 3.199z" class="cls-9" data-name="Path 43068" transform="translate(-124.108 -256.236)"/>
        <circle id="Ellipse_522" cx="11.87" cy="11.87" r="11.87" class="cls-9" data-name="Ellipse 522" transform="translate(113.798 142.088)"/>
        <path id="Path_43069" d="M230.184 444.183l8.048 1.359a30.484 30.484 0 0 0 5.995.6 16.684 16.684 0 0 1 3.312 0c.759.125 1.5.415 2.253.5.939.12 1.893-.06 2.833.06 1.749.225 3.187 1.434 4.5 2.588 1.554 1.359 3.227 2.942 3.342 5a1.4 1.4 0 0 1-.095.689 2.023 2.023 0 0 1-.595.625c-1.5 1.214-2.308 3.027-3.362 4.626a17.953 17.953 0 0 1-4 4.311c-.35-.225-1 .37-.864.754s.535.659.659 1.059c.285.909-.839 1.579-1.3 2.413s-.23 1.893-.28 2.868c-.055 1.064-.5 2.083-.619 3.142-.325 2.473.894 5.076.035 7.414a2.347 2.347 0 0 1 2.313 1.8 6.763 6.763 0 0 1-.095 3.157 4.346 4.346 0 0 1 2.1 3.972.954.954 0 0 0 .1.709 1 1 0 0 0 .4.235 4 4 0 0 1 2.5 3.722 1.794 1.794 0 0 0 .075.784 1.757 1.757 0 0 0 .579.6 4.626 4.626 0 0 1 1.729 3.617 2.616 2.616 0 0 1-1.229 2.378 21.772 21.772 0 0 1-5.405 1.609 46.365 46.365 0 0 1-5.231.924 47.092 47.092 0 0 1-4.9.155l-10.771-.045c-3 0-6.055 0-9.072-.225-2.818-.19-5.7-.545-8.428.195-.34-.574.2-1.249.545-1.828a6.161 6.161 0 0 0 .615-2.533l.679-7.174a13.191 13.191 0 0 0 .05-3c-.145-1.054-.544-2.053-.749-3.1-.39-2-.035-4.086-.125-6.135a28.741 28.741 0 0 0-.939-5.345l-2.1-8.762a31.332 31.332 0 0 0-1.049-4.4q-2.468-6.324-5.161-12.544a1.324 1.324 0 0 1 .095-1.114l1.779-3.187a20.222 20.222 0 0 1 1.629-2.6 10.232 10.232 0 0 1 5.995-3.687 10.586 10.586 0 0 1 6.994 1.034c.829.445 1.6 1 2.443 1.414a9.86 9.86 0 0 0 4.772 1.366z" class="cls-7" data-name="Path 43069" transform="translate(-110.801 -270.607)"/>
        <path id="Path_43070" d="M305.339 463.85l2.808 3.737a5.209 5.209 0 0 1 .649 1.034c.425 1 .19 2.128.42 3.177a6.693 6.693 0 0 0 .819 1.893A43 43 0 0 0 313.6 479a9.224 9.224 0 0 0 2.218 2.188 3.637 3.637 0 0 0 3 .53 1.853 1.853 0 0 0-1 .889 10.846 10.846 0 0 0-.694 6.944 7.259 7.259 0 0 0 .779 2.273 3.4 3.4 0 0 0 1.788 1.544 2.633 2.633 0 0 1-3.1 2.223 5.212 5.212 0 0 1-1.539-.764l-4.5-2.913a12.964 12.964 0 0 1-2.093-1.574c-.839-.839-1.429-1.9-2.248-2.768-1.394-1.5-3.442-2.358-4.431-4.131a19.08 19.08 0 0 1-1.1-3.642c-.25-.794-.614-1.544-.854-2.343a10.5 10.5 0 0 1 .924-7.494 30.636 30.636 0 0 1 4.589-6.112z" class="cls-7" data-name="Path 43070" transform="translate(-157.38 -282.455)"/>
        <path id="Path_43071" d="M247.669 383.115a15.626 15.626 0 0 0-4.176-4.341 14.233 14.233 0 0 0-7.529-3.187 8.14 8.14 0 0 0-3.392.555c-.05-3.352-.884-5.585-2.972-5.245-3.9.624-8.243 2.128-9.737 5.785-1.124 2.763-.255 5.875.035 8.847a6.766 6.766 0 0 1-.085 2.353 8.247 8.247 0 0 1-2.063 3.237 17.21 17.21 0 0 0-2.972 4.161 6.1 6.1 0 0 0-.2 5 3.672 3.672 0 0 1 .5 1.309c.045 1-1 1.659-1.8 2.308-2.927 2.423-2.8 6.839-2.828 10.646a53.834 53.834 0 0 1-5.091 22.481 6.874 6.874 0 0 0 7.693-1 25.692 25.692 0 0 1-1.748 5.036c2.5 1.2 5.465-.769 6.709-3.227s1.389-5.315 2.273-7.923 2.453-4.876 3.122-7.494a6.907 6.907 0 0 1 .889-2.5 6.545 6.545 0 0 1 1.559-1.329c2.558-1.833-1.2-15.727-.2-18.714 1.5.33 4.216-6.839 5.77-14.128a7.385 7.385 0 0 0 3.377.335 4.305 4.305 0 0 1 1.209-.085 3.218 3.218 0 0 1 1.054.43 25.954 25.954 0 0 0 3.592 1.849c2.578.959 5.41.834 8.153.694a8.108 8.108 0 0 0-1.142-5.853z" class="cls-14" data-name="Path 43071" transform="translate(-110.276 -235.921)"/>
        <g id="Group_12371" data-name="Group 12371" opacity="0.1" transform="translate(95.094 134.939)">
            <path id="Path_43072" d="M206.764 437.018a53.908 53.908 0 0 0 5.091-22.481c0-3.807-.1-8.223 2.828-10.646.779-.649 1.843-1.294 1.793-2.308a3.567 3.567 0 0 0-.5-1.309 6.127 6.127 0 0 1 .195-5 17.351 17.351 0 0 1 2.973-4.161 8.369 8.369 0 0 0 2.068-3.237 6.891 6.891 0 0 0 .085-2.353c-.29-3-1.164-6.085-.035-8.847 1.444-3.542 5.555-5.061 9.357-5.72a2 2 0 0 0-1-.065c-3.9.625-8.243 2.128-9.737 5.785-1.124 2.763-.255 5.875.035 8.847a6.765 6.765 0 0 1-.085 2.353 8.248 8.248 0 0 1-2.063 3.237 17.21 17.21 0 0 0-2.973 4.161 6.1 6.1 0 0 0-.2 5 3.673 3.673 0 0 1 .5 1.309c.045 1-1 1.659-1.8 2.308-2.927 2.423-2.8 6.839-2.828 10.646a53.834 53.834 0 0 1-5.091 22.481 6.654 6.654 0 0 0 3.772.7 6.46 6.46 0 0 1-2.385-.7z" data-name="Path 43072" transform="translate(-205.38 -370.859)"/>
            <path id="Path_43073" d="M218.649 506.306a25.673 25.673 0 0 0 1.743-5.036 6.33 6.33 0 0 1-1.689 1.119 25.428 25.428 0 0 1-1.454 3.917 3.7 3.7 0 0 0 2.293.295 3.679 3.679 0 0 1-.894-.295z" data-name="Path 43073" transform="translate(-211.32 -436.12)"/>
            <path id="Path_43074" d="M262.624 380.864a7.991 7.991 0 0 1 2.258-.53l-.265-.025a8 8 0 0 0-2 .15c-.003.135.007.265.007.405z" data-name="Path 43074" transform="translate(-234.023 -375.583)"/>
            <path id="Path_43075" d="M273.035 403.334a26.286 26.286 0 0 1-3.6-1.848 3.131 3.131 0 0 0-1.054-.43 3.751 3.751 0 0 0-1.1.07 4.091 4.091 0 0 1 .764.36 25.952 25.952 0 0 0 3.592 1.848 16.178 16.178 0 0 0 6.02.779 14.175 14.175 0 0 1-4.622-.779z" data-name="Path 43075" transform="translate(-236.357 -385.964)"/>
            <path id="Path_43076" d="M260.25 400.57c-.025.1-.05.21-.07.32a7.184 7.184 0 0 0 1.763.045 7.587 7.587 0 0 1-1.693-.365z" data-name="Path 43076" transform="translate(-232.803 -385.727)"/>
        </g>
        <path id="Path_43077" d="M195 468a4.321 4.321 0 0 1-1.164 3.467 7.584 7.584 0 0 1-1.654 1.214 4.353 4.353 0 0 1-1.963.739 3.7 3.7 0 0 1-2.5-1.089c-2.063-1.813-3.1-4.5-4.052-7.079a53.047 53.047 0 0 1-3.062-10.461c-.579-3.862-.335-7.863-1.439-11.61 1-1.963 1.609-4.127 2.723-6.02a27.373 27.373 0 0 0 1.878-3.522 12.115 12.115 0 0 0 .31-8.118 1.1 1.1 0 0 1 1.3.07 2.642 2.642 0 0 1 .784 1.134 10.066 10.066 0 0 1 .774 4.771 1.928 1.928 0 0 0 .14 1.169 1.5 1.5 0 0 0 1.269.535 11.153 11.153 0 0 0 2.928-.535 27.324 27.324 0 0 1 9.027-.744 4.32 4.32 0 0 1 1.758.43 1.644 1.644 0 0 1 .909 1.474l-7.219 1.054a2.958 2.958 0 0 0-1.5.5 1 1 0 0 0-.21 1.429 3.355 3.355 0 0 0 .5.335 1.5 1.5 0 0 1-.06 2.373 1.5 1.5 0 0 0-.5.34c-.295.395.1.919.22 1.4a1.759 1.759 0 0 1-.864 1.8 6.107 6.107 0 0 1-2 .674 21.219 21.219 0 0 0-4.121 1.4 2.228 2.228 0 0 0-1.074.8 2.41 2.41 0 0 0 .125 2.023l1.878 5.066c.295.794.589 1.589.959 2.348.5 1 1.069 1.928 1.559 2.912a30.535 30.535 0 0 1 1.174 2.838c.955 2.596 2.849 4.144 3.167 6.883z" class="cls-9" data-name="Path 43077" transform="translate(-97.17 -263.184)"/>
        <path id="Path_43078" d="M377.086 441.168a2.244 2.244 0 0 0-.824 1.2.5.5 0 0 0 .19.539.548.548 0 0 0 .335 0 3.173 3.173 0 0 0 1.449-.689 1.5 1.5 0 0 0-.435.35.5.5 0 0 0-.055.529.685.685 0 0 0 .475.25 4.632 4.632 0 0 0 2.093-.1 2.8 2.8 0 0 0-.874.5 1.159 1.159 0 0 0-.39.9.43.43 0 0 0 .155.34.632.632 0 0 0 .23.08 5.641 5.641 0 0 0 1.943 0 1 1 0 0 0 .819-.5 1.224 1.224 0 0 0-.19-.939 5.211 5.211 0 0 1-.5-2.378.965.965 0 0 0-.07-.5.874.874 0 0 0-.435-.315 3.636 3.636 0 0 0-2.388-.475 4.931 4.931 0 0 0-1.528 1.208z" class="cls-9" data-name="Path 43078" transform="translate(-195.791 -270.464)"/>
        <path id="Path_43079" d="M385.444 410.415l-23.84 12.9a.5.5 0 0 0 .035.889l4.067 1.534a.954.954 0 0 1 .535.5l3.162 6.494c.06.29.59.365.594.075l-.5-5.38a1.924 1.924 0 0 1 .435-1.084l12.359-12.11a.29.29 0 0 1 .27-.08.285.285 0 0 1 .155.455L372.08 427.67a2.377 2.377 0 0 0-.42 1.074l-.634 4.646c.05.4.37.56.624.195l2.3-2.693a.5.5 0 0 1 .669-.115l5.92 4.311a.5.5 0 0 0 .749-.295l4.866-23.84a.5.5 0 0 0-.7-.54z" class="cls-7" data-name="Path 43079" transform="translate(-188.337 -255.692)"/>
        <ellipse id="Ellipse_523" cx="29.71" cy="5.715" class="cls-7" data-name="Ellipse 523" rx="29.71" ry="5.715" transform="translate(438.415 366.576)"/>
        <ellipse id="Ellipse_524" cx="3.457" cy="4.526" class="cls-11" data-name="Ellipse 524" rx="3.457" ry="4.526" transform="translate(464.173 365.337)"/>
        <ellipse id="Ellipse_525" cx="3.457" cy="4.526" class="cls-11" data-name="Ellipse 525" rx="3.457" ry="4.526" transform="translate(464.173 359.807)"/>
        <ellipse id="Ellipse_526" cx="3.457" cy="4.526" class="cls-11" data-name="Ellipse 526" rx="3.457" ry="4.526" transform="translate(464.173 354.272)"/>
        <ellipse id="Ellipse_527" cx="3.457" cy="4.526" class="cls-11" data-name="Ellipse 527" rx="3.457" ry="4.526" transform="translate(464.173 348.736)"/>
        <ellipse id="Ellipse_528" cx="3.457" cy="4.526" class="cls-11" data-name="Ellipse 528" rx="3.457" ry="4.526" transform="translate(464.173 343.201)"/>
        <ellipse id="Ellipse_529" cx="3.457" cy="4.526" class="cls-11" data-name="Ellipse 529" rx="3.457" ry="4.526" transform="translate(464.173 337.671)"/>
        <ellipse id="Ellipse_530" cx="3.457" cy="4.526" class="cls-11" data-name="Ellipse 530" rx="3.457" ry="4.526" transform="translate(464.173 332.136)"/>
        <path id="Path_43080" d="M947.342 671.957a17.521 17.521 0 0 0 1.289-1.893l-9.092-1.5 9.832.075a16.621 16.621 0 0 0 .315-13.129l-13.186 6.84 12.16-8.937a16.571 16.571 0 1 0-27.367 18.539 17.135 17.135 0 0 0-1.888 3l11.8 6.13-12.579-4.221a16.581 16.581 0 0 0 2.668 15.557 16.566 16.566 0 1 0 26.048 0 16.586 16.586 0 0 0 0-20.482z" class="cls-7" data-name="Path 43080" transform="translate(-466.768 -373.168)"/>
        <path id="Path_43081" d="M917.78 719.106a16.487 16.487 0 0 0 3.542 10.241 16.566 16.566 0 1 0 26.048 0c2.218-2.818-29.59-12.1-29.59-10.241z" class="cls-6" data-name="Path 43081" transform="translate(-466.79 -410.07)"/>
        <ellipse id="Ellipse_531" cx="16.96" cy="3.262" class="cls-7" data-name="Ellipse 531" rx="16.96" ry="3.262" transform="translate(171.888 353.732)"/>
        <ellipse id="Ellipse_532" cx="1.973" cy="2.583" class="cls-11" data-name="Ellipse 532" rx="1.973" ry="2.583" transform="translate(187.16 353.023)"/>
        <ellipse id="Ellipse_533" cx="1.973" cy="2.583" class="cls-11" data-name="Ellipse 533" rx="1.973" ry="2.583" transform="translate(187.16 349.865)"/>
        <ellipse id="Ellipse_534" cx="1.973" cy="2.583" class="cls-11" data-name="Ellipse 534" rx="1.973" ry="2.583" transform="translate(187.16 346.703)"/>
        <ellipse id="Ellipse_535" cx="1.973" cy="2.583" class="cls-11" data-name="Ellipse 535" rx="1.973" ry="2.583" transform="translate(187.16 343.546)"/>
        <ellipse id="Ellipse_536" cx="1.973" cy="2.583" class="cls-11" data-name="Ellipse 536" rx="1.973" ry="2.583" transform="translate(187.16 340.384)"/>
        <ellipse id="Ellipse_537" cx="1.973" cy="2.583" class="cls-11" data-name="Ellipse 537" rx="1.973" ry="2.583" transform="translate(187.16 337.226)"/>
        <ellipse id="Ellipse_538" cx="1.973" cy="2.583" class="cls-11" data-name="Ellipse 538" rx="1.973" ry="2.583" transform="translate(187.16 334.069)"/>
        <path id="Path_43082" d="M376.793 715.982a9.4 9.4 0 0 1-.734-1.084l5.186-.849-5.61.04a9.492 9.492 0 0 1-.18-7.494l7.529 3.907-6.944-5.106a9.462 9.462 0 1 1 15.622 10.586 9.165 9.165 0 0 1 1.079 1.724l-6.734 3.5 7.184-2.4a9.536 9.536 0 0 1 .5 3.037 9.4 9.4 0 0 1-2.028 5.845 9.457 9.457 0 1 1-14.867 0 9.462 9.462 0 0 1 0-11.695z" class="cls-7" data-name="Path 43082" transform="translate(-195.053 -400.951)"/>
        <path id="Path_43083" d="M393.689 742.92a9.4 9.4 0 0 1-2.028 5.845 9.457 9.457 0 1 1-14.867 0c-1.27-1.609 16.895-6.909 16.895-5.845z" class="cls-6" data-name="Path 43083" transform="translate(-195.053 -422.04)"/>
        <ellipse id="Ellipse_539" cx="11.405" cy="2.193" class="cls-7" data-name="Ellipse 539" rx="11.405" ry="2.193" transform="translate(51.112 328.564)"/>
        <ellipse id="Ellipse_540" cx="1.329" cy="1.739" class="cls-11" data-name="Ellipse 540" rx="1.329" ry="1.739" transform="translate(61.383 328.089)"/>
        <ellipse id="Ellipse_541" cx="1.329" cy="1.739" class="cls-11" data-name="Ellipse 541" rx="1.329" ry="1.739" transform="translate(61.383 325.966)"/>
        <ellipse id="Ellipse_542" cx="1.329" cy="1.739" class="cls-11" data-name="Ellipse 542" rx="1.329" ry="1.739" transform="translate(61.383 323.838)"/>
        <ellipse id="Ellipse_543" cx="1.329" cy="1.739" class="cls-11" data-name="Ellipse 543" rx="1.329" ry="1.739" transform="translate(61.383 321.715)"/>
        <ellipse id="Ellipse_544" cx="1.329" cy="1.739" class="cls-11" data-name="Ellipse 544" rx="1.329" ry="1.739" transform="translate(61.383 319.591)"/>
        <ellipse id="Ellipse_545" cx="1.329" cy="1.739" class="cls-11" data-name="Ellipse 545" rx="1.329" ry="1.739" transform="translate(61.383 317.468)"/>
        <ellipse id="Ellipse_546" cx="1.329" cy="1.739" class="cls-11" data-name="Ellipse 546" rx="1.329" ry="1.739" transform="translate(61.383 315.345)"/>
        <path id="Path_43084" d="M129.239 696.012a5.513 5.513 0 0 1-.5-.729l3.5-.569h-3.772a6.355 6.355 0 0 1-.125-5.036l5.061 2.658-4.671-3.432a6.36 6.36 0 1 1 10.491 7.119 6.444 6.444 0 0 1 .724 1.159l-4.516 2.343 4.826-1.619a6.25 6.25 0 0 1 .335 2.038 6.344 6.344 0 0 1-1.359 3.932 6.365 6.365 0 1 1-9.991 0 6.349 6.349 0 0 1-.003-7.864z" class="cls-7" data-name="Path 43084" transform="translate(-71.498 -393.466)"/>
        <path id="Path_43085" d="M140.6 714.136a6.344 6.344 0 0 1-1.359 3.932 6.365 6.365 0 1 1-9.991 0c-.861-1.079 11.35-4.646 11.35-3.932z" class="cls-6" data-name="Path 43085" transform="translate(-71.503 -407.658)"/>
    </g>
</svg>
