<svg xmlns="http://www.w3.org/2000/svg" width="126.146" height="110.96" viewBox="0 0 126.146 110.96">
    <defs>
        <style>
            .cls-2{fill:#e6e6e6}.cls-3{fill:#ffb8b8}.cls-4{fill:#2f2e41}.cls-5{fill:#289ffa}.cls-6{opacity:.2}.cls-7{fill:#3f3d56}.cls-8{fill:#fff}.cls-9{fill:#6c63ff}
        </style>
    </defs>
    <g id="undraw_working_from_anywhere_ub67" transform="translate(0 18.998)">
        <circle id="Ellipse_25" cx="10.127" cy="10.127" r="10.127" fill="#ff6584" data-name="Ellipse 25" transform="translate(0 -6.749)"/>
        <path id="Path_182" d="M978.493 583.25a18.362 18.362 0 0 1-.858 5.076l-.037.114h-3.2c0-.034.007-.072.01-.114.213-2.454 1.444-17.388-.027-19.942.127.207 4.359 7.069 4.112 14.866z" class="cls-2" data-name="Path 182" transform="translate(-860.999 -514.718)"/>
        <path id="Path_183" d="M987.2 647.009l-.083.114h-2.4l.064-.114c.4-.716 1.571-2.857 2.661-5.076 1.171-2.385 2.246-4.86 2.156-5.756.022.202.832 6.361-2.398 10.832z" class="cls-2" data-name="Path 183" transform="translate(-869.942 -573.401)"/>
        <path id="Rectangle_145" d="M0 0H92.047V0.301H0z" class="cls-2" data-name="Rectangle 145" transform="translate(34.099 73.504)"/>
        <path id="Path_184" d="M822.844 690.948l.447-3.689 12.632-3.242-1.453-4.36c1.012-2.9 2.789-4.327 6.036-2.906l5.585 3.47a3.565 3.565 0 0 1 1.679 3.221 3.562 3.562 0 0 1-2.028 3.028c-6.253 2.964-14.222 4.098-22.898 4.478z" class="cls-3" data-name="Path 184" transform="translate(-729.826 -608.042)"/>
        <path id="Path_185" d="M767.671 746.212l-3.913-.559-3.659.747a1.581 1.581 0 0 1-1.9-1.483 1.581 1.581 0 0 1 .628-1.328l5.734-4.32a2.589 2.589 0 0 1 3.354.2l1.428 1.375a5.311 5.311 0 0 0-2.236 2.906q1.478.813.564 2.462z" class="cls-4" data-name="Path 185" transform="translate(-673.871 -662.189)"/>
        <circle id="Ellipse_26" cx="3.618" cy="3.618" r="3.618" class="cls-3" data-name="Ellipse 26" transform="translate(93.919 38.057)"/>
        <path id="Path_186" d="M846.338 497.687l-8.1 3.409c.659-3.307.987-6.32 0-8.16l5.2-.615c-.264 1.414 1.051 3.309 2.9 5.366z" class="cls-3" data-name="Path 186" transform="translate(-743.148 -448.876)"/>
        <path id="Path_187" d="M760.815 621.466l-3.018-.224a74.394 74.394 0 0 1-2.382-21.649 3.762 3.762 0 0 1 3.837-3.535 3.757 3.757 0 0 1 2.5 1.034l3.9 3.714a16.062 16.062 0 0 1 3.955 5.888c1.105 2.9.709 4.518-1.93 4.243a6.512 6.512 0 0 1-4.24-2.254l-2.852-3.314z" class="cls-3" data-name="Path 187" transform="translate(-671.375 -538.672)"/>
        <path id="Path_188" d="M763.277 779.909A2.582 2.582 0 0 1 761 776.5l.589-1.728.447-4.36c.689-1.406 1.664-1.2 2.795-.112.719-.071.873-.789.782-1.789l2.266 3.051a1.819 1.819 0 0 1 .195 1.839l-2.281 5a2.582 2.582 0 0 1-2.518 1.506z" class="cls-4" data-name="Path 188" transform="translate(-676.174 -687.952)"/>
        <path id="Path_189" d="M840.08 641.273c-4.136 2.347-5.432 2.416-9.558 4.08l-3.577-2.012c-4.2 1.553-7.148-.576-10.34-3.745 2.089-3.479 1.165-8 2.459-7.937l15.483 4.863.671 1.677z" class="cls-4" data-name="Path 189" transform="translate(-724.425 -569.49)"/>
        <path id="Path_190" d="M827.115 537.189c-5.467 2.366-11.353-.139-16.377-5.645l-3.327-13.435a1.121 1.121 0 0 1 .864-1.387l3.86-.772 1.9 3.018 3.8-3.354 4.036 1.32a3.116 3.116 0 0 1 2.1 2.422z" class="cls-5" data-name="Path 190" transform="translate(-716.435 -469.038)"/>
        <path id="Path_191" d="M881.474 721.4a1.974 1.974 0 0 1-.8-3.121l2.556-3.014 1.789 1.006-.921 3.755a1.974 1.974 0 0 1-2.62 1.374z" class="cls-6" data-name="Path 191" transform="translate(-779.477 -641.865)"/>
        <path id="Path_192" d="M881.474 718.077a1.974 1.974 0 0 1-.8-3.121l2.556-3.014 1.789 1.006-.921 3.755a1.974 1.974 0 0 1-2.62 1.375z" class="cls-3" data-name="Path 192" transform="translate(-779.477 -638.985)"/>
        <path id="Path_193" d="M902.061 553.258l-2.683-1.789 3.913-10.4-1.453-14.644 1.326.828a6.2 6.2 0 0 1 2.785 4.008l2.149 10.478c-.941 4.834-2.509 9.084-6.037 11.519z" class="cls-5" data-name="Path 193" transform="translate(-796.076 -478.4)"/>
        <path id="Path_194" d="M776.661 555.922l1.339 6.707-1.1 3.923z" class="cls-6" data-name="Path 194" transform="translate(-672.297 -497.665)"/>
        <path id="Path_195" d="M828.04 440.831s-2.085-6.824 4.288-5.393a4.876 4.876 0 0 1 2.522 1.548.614.614 0 0 0 .48.2c1.018 0 1.647 3.638-.389 5.237 0 0 .416-2.153-.34-2.886a1.621 1.621 0 0 1-.336-.433c-.491-.991-2.144-1.317-3.283-1.232-.582.043-.633 1.057-1.276.916-1.466-.326-1.934 1.372-1.666 2.043z" class="cls-4" data-name="Path 195" transform="translate(-734.042 -399.466)"/>
        <path id="Path_196" d="M845.5 550.394l-.042.309-.26 1.906-.426 3.122-.107.782a.249.249 0 0 1-.247.215h-2.844a.249.249 0 0 1-.247-.215l-.109-.782-.434-3.122-.265-1.908-.043-.307a.249.249 0 0 1 .247-.283h4.53a.249.249 0 0 1 .247.283z" class="cls-2" data-name="Path 196" transform="translate(-745.089 -498.901)"/>
        <path id="Path_197" d="M712.339 497.33h3.944a.249.249 0 0 1 .249.249v.329a.249.249 0 0 1-.249.249h-3.944a.249.249 0 0 1-.249-.249v-.329a.249.249 0 0 1 .249-.249z" class="cls-7" data-name="Path 197" transform="translate(-616.402 -446.946)"/>
        <path id="Path_198" d="M842.068 547.862a26.365 26.365 0 0 1-5.721 0 .249.249 0 0 1-.249-.249v-.329a.249.249 0 0 1 .249-.249 23.442 23.442 0 0 0 5.721 0 .249.249 0 0 1 .249.249v.329a.249.249 0 0 1-.249.249z" class="cls-7" data-name="Path 198" transform="translate(-741.299 -496.237)"/>
        <circle id="Ellipse_27" cx="1.075" cy="1.075" r="1.075" class="cls-8" data-name="Ellipse 27" transform="translate(96.718 53.297)"/>
        <path id="Path_199" d="M838.578 579.063a1.974 1.974 0 0 1-2.424 2.124l-3.842-.922.092-2.05 3.767-.87a1.974 1.974 0 0 1 2.408 1.719z" class="cls-3" data-name="Path 199" transform="translate(-738.021 -522.43)"/>
        <path id="Path_200" d="M756.508 533l-10.37.259a2.576 2.576 0 0 1-2.614-2.939 2.576 2.576 0 0 1 .79-1.517l4.882-4.567a6.519 6.519 0 0 1 3.253-1.647l1.711-.321 1.006 7.6-5.813-.671 6.819.783z" class="cls-5" data-name="Path 200" transform="translate(-661.143 -474.8)"/>
        <path id="Path_201" d="M562.4 757.021h-26.475a.888.888 0 0 1-.888-.888 119.653 119.653 0 0 1 28.248 0 .888.888 0 0 1-.885.888z" class="cls-4" data-name="Path 201" transform="translate(-480.694 -676.514)"/>
        <path id="Path_202" d="M563.286 640.484l-28.248-.052 3.274-5.509.016-.026v-12.14a1.122 1.122 0 0 1 1.122-1.122h19.268a1.122 1.122 0 0 1 1.122 1.122v12.224z" class="cls-7" data-name="Path 202" transform="translate(-480.694 -560.813)"/>
        <path id="Path_203" d="M565.323 627.463a.366.366 0 0 0-.365.365V638.9a.366.366 0 0 0 .365.365H584.8a.366.366 0 0 0 .365-.365v-11.07a.366.366 0 0 0-.365-.365z" class="cls-8" data-name="Path 203" transform="translate(-506.594 -565.858)"/>
        <path id="Path_204" d="M561.122 726.161a.157.157 0 0 0-.142.091l-1.009 2.193a.157.157 0 0 0 .142.222h21.214a.157.157 0 0 0 .14-.227l-1.1-2.193a.156.156 0 0 0-.14-.087z" class="cls-4" data-name="Path 204" transform="translate(-502.265 -651.293)"/>
        <circle id="Ellipse_28" cx=".235" cy=".235" r=".235" class="cls-8" data-name="Ellipse 28" transform="translate(68.155 60.952)"/>
        <path id="Path_205" d="M621.408 747.921a.157.157 0 0 0-.151.116l-.253.94a.157.157 0 0 0 .151.2h4.812a.157.157 0 0 0 .148-.208l-.325-.94a.157.157 0 0 0-.148-.105z" class="cls-4" data-name="Path 205" transform="translate(-555.104 -670.129)"/>
        <path id="Path_206" d="M450.309 672.346v.209h-21.528l.016-.026v-.183z" class="cls-4" data-name="Path 206" transform="translate(-371.163 -598.444)"/>
        <path id="Path_207" d="M491.435 544.392a23.535 23.535 0 0 0 1.1 6.506c.015.049.031.1.047.146h4.1c0-.044-.009-.093-.013-.146-.274-3.145-1.851-22.286.035-25.56-.162.262-5.587 9.062-5.269 19.054z" class="cls-2" data-name="Path 207" transform="translate(-442.939 -477.457)"/>
        <path id="Path_208" d="M473.123 626.112c.034.049.07.1.107.146h3.078l-.082-.146c-.508-.918-2.013-3.661-3.411-6.506-1.5-3.057-2.879-6.229-2.763-7.378-.035.26-1.074 8.155 3.071 13.884z" class="cls-2" data-name="Path 208" transform="translate(-424.319 -552.671)"/>
        <path id="Path_209" d="M529.416 213.07l1.668-1.334a1.767 1.767 0 0 0-2.046 1.123 2.841 2.841 0 0 0-2.114.131l3.337 1.212a2.525 2.525 0 0 0-.845-1.132z" class="cls-7" data-name="Path 209" transform="translate(-473.67 -205.978)"/>
        <path id="Path_210" d="M903.3 161.965l1.668-1.334a1.768 1.768 0 0 0-2.046 1.123 2.841 2.841 0 0 0-2.115.131l3.338 1.212a2.526 2.526 0 0 0-.845-1.132z" class="cls-7" data-name="Path 210" transform="translate(-797.313 -161.741)"/>
        <path id="Path_211" d="M831.819 293.72l1.668-1.334a1.767 1.767 0 0 0-2.046 1.123 2.841 2.841 0 0 0-2.115.131l3.337 1.212a2.526 2.526 0 0 0-.844-1.132z" class="cls-7" data-name="Path 211" transform="translate(-735.438 -275.791)"/>
        <ellipse id="Ellipse_29" cx="15.061" cy="30.731" class="cls-2" data-name="Ellipse 29" rx="15.061" ry="30.731" transform="rotate(-10.221 -73.744 -35.759)"/>
        <path id="Path_212" d="M301.5 226.854q1.987 5.4 3.537 10.954t2.646 11.2q1.1 5.655 1.743 11.387t.823 11.481q.182 5.754-.1 11.51-.035.705-.076 1.41c-.028.481.721.48.749 0q.339-5.774.213-11.563-.127-5.756-.715-11.489-.589-5.75-1.632-11.442t-2.541-11.283q-1.5-5.587-3.442-11.041-.237-.665-.481-1.328c-.171-.443-.895-.25-.724.204z" class="cls-7" data-name="Path 212" transform="translate(-278.513 -218.689)"/>
        <path id="Path_213" d="M335.579 270.791l3.317-7.365.935-2.076a.386.386 0 0 0-.134-.512.377.377 0 0 0-.512.134l-3.317 7.365-.935 2.076a.386.386 0 0 0 .134.512.377.377 0 0 0 .512-.134z" class="cls-7" data-name="Path 213" transform="translate(-307.437 -248.455)"/>
        <path id="Path_214" d="M280.005 349.181l-7.563-2.836-2.132-.8a.378.378 0 0 0-.46.261.383.383 0 0 0 .261.46l7.563 2.836 2.132.8a.377.377 0 0 0 .46-.261.383.383 0 0 0-.261-.461z" class="cls-7" data-name="Path 214" transform="translate(-251.13 -321.812)"/>
        <path id="Path_215" d="M301.672 663.052s9.109-2.995 17.594 0" class="cls-2" data-name="Path 215" transform="translate(-278.687 -595.512)"/>
        <path id="Path_216" d="M602.49 655.247c1.805-.019 3.61-.051 5.415-.076q.9-.012 1.805-.021a.4.4 0 0 0 0-.806c-1.805.019-3.61.051-5.415.076l-1.805.021a.4.4 0 0 0 0 .806z" class="cls-9" data-name="Path 216" transform="translate(-538.745 -589.126)"/>
        <path id="Path_217" d="M602.49 669.247l7.3-.076 2.075-.021a.4.4 0 0 0 0-.806l-7.3.076-2.075.021a.4.4 0 0 0 0 .806z" class="cls-9" data-name="Path 217" transform="translate(-538.745 -601.245)"/>
        <path id="Path_218" d="M602.49 683.247l7.3-.076 2.075-.022a.4.4 0 0 0 0-.806l-7.3.076-2.075.021a.4.4 0 0 0 0 .807z" class="cls-9" data-name="Path 218" transform="translate(-538.745 -613.364)"/>
    </g>
</svg>
