<svg xmlns="http://www.w3.org/2000/svg" id="undraw_active_options_8je6" width="160.557" height="111" viewBox="0 0 160.557 111">
    <defs>
        <style>
            .cls-1{fill:#e6e6e6}.cls-2{fill:#fff}.cls-4{fill:#44cf60}.cls-5{fill:#f2f2f2}.cls-6{fill:#3f3d56}.cls-7{fill:#a0616a}.cls-8{fill:#2f2e41}
        </style>
    </defs>
    <path id="Path_239" d="M256.813 530.263l-2.065-3.336a49.387 49.387 0 0 1 2.289-5.074l1.356 1.141-1.057-1.708c1.081-2.026 1.925-3.3 1.925-3.3a47.328 47.328 0 0 1 5.423 13.98l-2.82 4.171 3.077-2.384a19.976 19.976 0 0 1 .116 2.508c-.17 8.445-3.066 15.236-6.468 15.167s-6.023-6.97-5.853-15.415a26.3 26.3 0 0 1 1.568-7.862z" class="cls-1" data-name="Path 239" transform="translate(-235.238 -450.194)"/>
    <path id="Path_240" d="M204.317 553.134l-3.492-1.789a49.394 49.394 0 0 1-.663-5.527l1.75.276-1.788-.916c-.122-2.293-.057-3.819-.057-3.819a47.328 47.328 0 0 1 11.868 9.165l-.258 5.028 1.4-3.631a19.968 19.968 0 0 1 1.4 2.087c4.22 7.317 5.251 14.627 2.3 16.327s-8.759-2.854-12.978-10.171a26.3 26.3 0 0 1-2.722-7.541z" class="cls-1" data-name="Path 240" transform="translate(-192.085 -469.341)"/>
    <path id="Path_241" d="M261.4 707.469c-4.024.257-8.408-.015-13.072 0V696.79a47.109 47.109 0 0 0 13.072 0z" class="cls-1" data-name="Path 241" transform="translate(-231.634 -596.668)"/>
    <path id="Path_242" d="M494.9 61.957l-42.7 6.876-.181-41.514L494.72 0z" class="cls-1" data-name="Path 242" transform="translate(-370.29)"/>
    <path id="Path_243" d="M499.938 96.543l-36.912 7.957V69.764l36.912-20.034z" class="cls-2" data-name="Path 243" transform="translate(-379.307 -40.738)"/>
    <path id="Path_244" fill="#f9ca5b" d="M506.157 103.845l-31.122 13.937v-4.89l31.122-15.375z" data-name="Path 244" transform="translate(-389.145 -79.885)"/>
    <path id="Path_245" d="M506.157 176.279l-31.122 10.977v-4.825l31.122-12.4z" class="cls-4" data-name="Path 245" transform="translate(-389.145 -139.291)"/>
    <path id="Path_246" d="M692.608 313.774a.117.117 0 0 1 .224-.007l.5 1.588.6 1.9a.117.117 0 0 1-.066.143l-1.167.486-1.025.427a.117.117 0 0 1-.158-.136l.561-2.278z" class="cls-1" data-name="Path 246" transform="translate(-594.694 -282.832)"/>
    <path id="Path_247" d="M682.7 379a.193.193 0 0 1 .37-.012l.422 1.331.583 1.836a.192.192 0 0 1-.109.236l-1.1.459-.886.369a.192.192 0 0 1-.261-.224l.525-2.132z" class="cls-1" data-name="Path 247" transform="translate(-586.66 -336.22)"/>
    <path id="Path_248" d="M506.157 246.592l-31.122 8.017v-5.122l31.122-9.523z" class="cls-5" data-name="Path 248" transform="translate(-389.145 -196.577)"/>
    <path id="Path_249" d="M789.4 287.987a2.744 2.744 0 0 1-1.086 2.418c-.592.243-1.069-.431-1.069-1.5a2.777 2.777 0 0 1 1.069-2.411c.597-.266 1.086.406 1.086 1.493z" class="cls-6" data-name="Path 249" transform="translate(-673.111 -260.508)"/>
    <path id="Path_250" d="M791.886 294.365a.923.923 0 0 1-.362.81c-.2.083-.36-.142-.36-.5a.927.927 0 0 1 .36-.809c.199-.089.362.134.362.499z" class="cls-2" data-name="Path 250" transform="translate(-676.321 -266.579)"/>
    <path id="Path_251" d="M789.4 358.038a2.744 2.744 0 0 1-1.086 2.418c-.592.243-1.069-.431-1.069-1.5a2.777 2.777 0 0 1 1.069-2.411c.597-.266 1.086.403 1.086 1.493z" class="cls-4" data-name="Path 251" transform="translate(-673.111 -317.893)"/>
    <path id="Path_252" d="M791.886 364.417a.923.923 0 0 1-.362.81c-.2.084-.36-.142-.36-.5a.927.927 0 0 1 .36-.809c.199-.089.362.136.362.499z" class="cls-2" data-name="Path 252" transform="translate(-676.321 -323.965)"/>
    <path id="Path_253" d="M789.4 428.089a2.744 2.744 0 0 1-1.086 2.418c-.592.243-1.069-.431-1.069-1.5a2.777 2.777 0 0 1 1.069-2.411c.597-.265 1.086.404 1.086 1.493z" class="cls-5" data-name="Path 253" transform="translate(-673.111 -375.278)"/>
    <path id="Path_254" d="M791.886 434.468a.923.923 0 0 1-.362.81c-.2.083-.36-.142-.36-.5a.927.927 0 0 1 .36-.809c.199-.089.362.136.362.499z" class="cls-2" data-name="Path 254" transform="translate(-676.321 -381.35)"/>
    <path id="Path_255" d="M698.7 437.049a.192.192 0 0 1 .37-.012l.422 1.331.583 1.836a.192.192 0 0 1-.109.236l-1.1.459-.887.369a.192.192 0 0 1-.261-.224l.525-2.132z" class="cls-1" data-name="Path 255" transform="translate(-599.767 -383.771)"/>
    <path id="Path_256" d="M655.691 398.3l1.684-1.553s3.811-2.625 2.48-4.068-4.014 1.922-4.014 1.922l-1.665 1.091z" class="cls-7" data-name="Path 256" transform="translate(-564.102 -347.25)"/>
    <path id="Path_257" d="M534.508 410.03l-.981 1.35s-1.37 5.271 5.565 5.55c0 0 8.858 4.294 11.05 1.6s8.243-9.161 8.243-9.161l-3.559-3.617-7.253 7.58-7.036-3.526s-3.623-1.994-6.029.224z" class="cls-8" data-name="Path 257" transform="translate(-465.178 -358.256)"/>
    <path id="Path_258" d="M316.318 424.679l-9.183 33.832 1.157.231 9.646-34.064z" class="cls-1" data-name="Path 258" transform="translate(-251.603 -347.894)"/>
    <path id="Path_259" d="M412.156 424.679l9.183 33.832-1.157.231-9.646-34.064z" class="cls-1" data-name="Path 259" transform="translate(-336.308 -347.894)"/>
    <path id="Path_260" d="M384.8 418.743l1.54 34.583 1.337.06-1.72-35.105z" class="cls-1" data-name="Path 260" transform="translate(-315.221 -342.652)"/>
    <path id="Path_261" d="M510.711 554.994c0 .877-2.4 1.819-5.553 2.121-3.383.325-6.312-.2-6.312-1.2s2.93-1.979 6.312-2.18c3.152-.187 5.553.381 5.553 1.259z" class="cls-1" data-name="Path 261" transform="translate(-436.857 -479.45)"/>
    <path id="Path_262" d="M577.783 528.053l2.314 1.62s9.949 7.172 9.023 9.949-6.02 13.878-6.02 13.878l-6.478-2.082 7.4-11.8-3.933-3.7-2.082-5.09z" class="cls-8" data-name="Path 262" transform="translate(-500.574 -458.44)"/>
    <path id="Path_263" d="M520.712 501.194s-4.627 7.172-1.851 9.255 10.643 10.18 10.643 10.18l1.62 3.7 5.784 18.741 7.173-3.7-6.481-14.576s-.694-5.322-3.008-8.329a21.249 21.249 0 0 1-3.239-7.4l.694-2.082-4.143-6.629z" class="cls-8" data-name="Path 263" transform="translate(-452.527 -435.746)"/>
    <path id="Path_264" d="M564.53 655.719l-4.159-1.266s-4.491-.185-4.259 1.435 3.933 12.263 5.09 11.568.231-3.933.231-3.933z" class="cls-8" data-name="Path 264" transform="translate(-483.762 -561.981)"/>
    <path id="Path_265" d="M385.19 237.21l-2.314 2.545 3.7 6.016 1.62-4.627z" class="cls-7" data-name="Path 265" transform="translate(-313.649 -194.321)"/>
    <path id="Path_266" d="M536.574 398.687l-4.109-6.805-1.443.327v2.314l-.463 19.435 7.635-1.157s.462-12.494-1.62-14.114z" class="cls-4" data-name="Path 266" transform="translate(-462.835 -346.89)"/>
    <path id="Path_267" d="M484.174 399.936l-3.471-6.247-3.008 1.388-5.322 21.749-3.239 6.247s10.643 5.322 13.188 0 2.776-17.121 2.776-17.121z" class="cls-8" data-name="Path 267" transform="translate(-412.518 -348.371)"/>
    <path id="Path_268" d="M484.024 401.965l-1.388-.926s-5.321-1.157-5.321 5.784c0 0-3.933 9.023-1.157 11.106s9.486 7.867 9.486 7.867l3.471-3.7-7.867-6.941 3.239-7.172s1.851-3.704-.463-6.018z" class="cls-8" data-name="Path 268" transform="translate(-417.458 -354.333)"/>
    <path id="Path_269" d="M533.118 522l1.62 1.62s2.776 3.7 4.165 2.314S536.82 522 536.82 522l-1.157-1.62z" class="cls-7" data-name="Path 269" transform="translate(-464.932 -452.151)"/>
    <path id="Path_270" d="M560.831 417.907l3.97 9.735s1.62 4.859 1.62 6.71v5.09l-4.4-5.784s-2.383-15.074-1.19-15.751z" class="cls-8" data-name="Path 270" transform="translate(-487.361 -368.21)"/>
    <path id="Path_271" d="M630.365 715.684s-1.146 4.513.358 4.9 14.126.705 14.134-1.428-8.192-3.9-8.192-3.9l-3.029-1.944z" class="cls-8" data-name="Path 271" transform="translate(-544.254 -610.203)"/>
    <circle id="Ellipse_34" cx="4.165" cy="4.165" r="4.165" class="cls-7" data-name="Ellipse 34" transform="translate(70.268 38.84)"/>
    <path id="Path_272" d="M549.555 348.645s.813-3.525 0-4.339v.542s-.542-1.9-1.627-1.356c0 0-1.356-1.085-1.627-.542-1.6-1.443-8.67-.09-5.236 7.483 0 0 .626-2.331.626-1.518a17.7 17.7 0 0 0 1.9-2.169c.269-.546 4.879 2.984 5.964 1.899z" class="cls-8" data-name="Path 272" transform="translate(-470.681 -306.388)"/>
    <path id="Rectangle_170" d="M0 0H160.557V0.405H0z" class="cls-6" data-name="Rectangle 170" transform="translate(0 110.595)"/>
</svg>
