<svg xmlns="http://www.w3.org/2000/svg" width="150.267" height="107" viewBox="0 0 150.267 107">
    <defs>
        <style>
            .cls-1{opacity:.1}.cls-2{fill:#e6e6e6}.cls-3{fill:#f9ca5b}.cls-4{fill:#3f3d56}.cls-6{fill:#2f2e41}.cls-7{fill:#f2f2f2}.cls-8{fill:#ffb9b9}.cls-9{fill:#575a89}.cls-10{fill:#ccc}
        </style>
    </defs>
    <g id="undraw_complete_task_u2c3">
        <ellipse id="Ellipse_35" cx="13.206" cy="2.229" class="cls-1" data-name="Ellipse 35" rx="13.206" ry="2.229" transform="translate(10.585 96.752)"/>
        <ellipse id="Ellipse_36" cx="13.206" cy="2.229" class="cls-1" data-name="Ellipse 36" rx="13.206" ry="2.229" transform="translate(58.686 102.211)"/>
        <path id="Path_273" d="M163.689 439.723c.955 1.274 1.986 2.732 3 4.321l.145-7.33.08.051a14.3 14.3 0 0 0-3.539-1.892l.08.045z" class="cls-2" data-name="Path 273" transform="translate(-152.667 -383.606)"/>
        <path id="Path_274" d="M140.173 431.911a7.536 7.536 0 0 0-3.743-.388c-.06.011-.12.023-.179.036.3.317 2.015 2.187 4.145 5.006z" class="cls-2" data-name="Path 274" transform="translate(-129.543 -380.671)"/>
        <path id="Path_275" d="M214.781 502.26q.235.561.447 1.114l2.688-7.938.077.074q-.476-.9-1.01-1.742l-2.166 8.524z" class="cls-2" data-name="Path 275" transform="translate(-196.486 -433.81)"/>
        <path id="Path_276" d="M189.454 459.979l1.4-8.322.08.064a22.489 22.489 0 0 0-3.879-3.624l-.148 7.469q1.424 2.24 2.547 4.413z" class="cls-2" data-name="Path 276" transform="translate(-172.728 -394.877)"/>
        <path id="Path_277" d="M107.19 488.134l-.033-.1a18.779 18.779 0 0 0 .742 3.711l12.918 1.332c-.674-1.244-1.371-2.41-2.046-3.474z" class="cls-2" data-name="Path 277" transform="translate(-104.742 -428.921)"/>
        <path id="Path_278" d="M112.427 513.975l-.034-.1q.2.639.44 1.293l-.035-.1 13.075 1.162q-.237-.463-.479-.915z" class="cls-2" data-name="Path 278" transform="translate(-109.205 -450.949)"/>
        <path id="Path_279" d="M206.407 484.563l2.148-8.453.079.069a26.856 26.856 0 0 0-2.144-2.917l-1.424 8.435q.74 1.453 1.341 2.866z" class="cls-2" data-name="Path 279" transform="translate(-188.204 -416.33)"/>
        <path id="Path_280" d="M144.351 554.67l-12.723-1.225a25.98 25.98 0 0 0 2.255 2.647l-.032-.113 11.63 2.393a32.3 32.3 0 0 0-1.13-3.702z" class="cls-2" data-name="Path 280" transform="translate(-125.601 -484.682)"/>
        <path id="Path_281" d="M114.548 432.472l.03-.064a5.1 5.1 0 0 0-3.663 3.31l7.783 1.759c-2.306-3.05-4.124-4.977-4.15-5.005z" class="cls-2" data-name="Path 281" transform="translate(-107.944 -381.503)"/>
        <path id="Path_282" d="M218.667 514.746a32.094 32.094 0 0 1 1.017 3.341l3.03-7.6.074.074a12.723 12.723 0 0 0-.967-3.062q-.268-.574-.561-1.13l-2.721 8.033c.043.115.087.23.128.344z" class="cls-2" data-name="Path 282" transform="translate(-199.689 -444.552)"/>
        <path id="Path_283" d="M118.293 461.594c-1.007-1.57-2.026-3.011-2.97-4.27l-7.962-1.8-.027-.1a10.83 10.83 0 0 0-.528 4.713z" class="cls-2" data-name="Path 283" transform="translate(-104.398 -401.124)"/>
        <path id="Path_284" d="M117.835 527.561l12.8 1.232v-.008a43.594 43.594 0 0 0-1.9-4.291l-13.107-1.165q.334.884.754 1.787a15.621 15.621 0 0 0 1.452 2.445z" class="cls-2" data-name="Path 284" transform="translate(-111.963 -459.009)"/>
        <path id="Path_285" d="M312.519 547.9l.029.091a14.306 14.306 0 0 0-1.519-3.714l.033.085-2.887 3.847c-.077 1.591-.213 3.371-.443 5.243z" class="cls-2" data-name="Path 285" transform="translate(-275.722 -476.864)"/>
        <path id="Path_286" d="M313.621 527.76a7.537 7.537 0 0 0-2.635-2.686c-.053-.03-.107-.059-.161-.087.025.432.157 2.97 0 6.5z" class="cls-2" data-name="Path 286" transform="translate(-278.358 -460.423)"/>
        <path id="Path_287" d="M293.278 637.077q-.177.582-.366 1.143l7.134-4.4.012.106q.2-.994.333-1.985l-7.105 5.183z" class="cls-2" data-name="Path 287" transform="translate(-263.088 -551.597)"/>
        <path id="Path_288" d="M301.671 580.786l6.39-5.514.021.1a22.489 22.489 0 0 0-.676-5.266l-4.878 5.658q-.335 2.636-.857 5.022z" class="cls-2" data-name="Path 288" transform="translate(-270.555 -498.885)"/>
        <path id="Path_289" d="M303.119 606.584l-6.477 5.588q-.357 1.592-.8 3.063l7.046-5.14.016.1a26.859 26.859 0 0 0 .215-3.611z" class="cls-2" data-name="Path 289" transform="translate(-265.591 -529.98)"/>
        <path id="Path_290" d="M153.171 565.341q.009-.131.016-.269a22.349 22.349 0 0 0 2.932-4.495l-3.912-4.874q-.077-.249-.161-.5l4.164 5.188a32.293 32.293 0 0 0 1.49-3.573l-8.235-8.272.078-.2 8.224 8.261h.007a43.6 43.6 0 0 0 1.275-4.516l-8.167-8.084.051-.226 8.167 8.084q.113-.508.214-1.01l-8.143-8.291.04-.238 8.149 8.3c.274-1.388.482-2.731.639-3.981l-7.983-8.518.039-.1c-.189.276-.373.564-.552.864a16.46 16.46 0 0 0-.23-2.825l-3.059 7.672a24.7 24.7 0 0 1 .53 3.212c-.019.183-.035.367-.049.552l.1.1.017.295-.134-.134-.016.325a23.258 23.258 0 0 0-.6-4.331l-11.545-2.375c.582.6 1.191 1.177 1.814 1.737a14.11 14.11 0 0 0-3.73-.637l.09.018 1.7 4.5c1.3.917 2.733 1.985 4.192 3.181l-2.1-6.919.234.207 2.093 6.9q2.043 1.692 3.782 3.412l-.962-6.494.2.14.972 6.565q1.153 1.153 2.161 2.311l-.466-7.12.195.121.471 7.2-.045-.019q.4.461.769.922l.09-7.321.192.112-.092 7.448c.076.1.153.192.228.287a32.082 32.082 0 0 1 2 2.863l.043-.666q.08.3.161.582l-.025.379c.09.149.176.3.262.447q.1.34.2.662-.285-.527-.594-1.044l-11.714 1.31a59.908 59.908 0 0 0 14.289 4.872c-.116-.511-.256-1.017-.418-1.519l.125-.133.06.18-.065.07.076-.036q.169.529.3 1.055c.036-.285.083-.717.125-1.264 2.11-1.056 7.573-4.142 10.347-8.981l-7.249 3.958a22.57 22.57 0 0 1-3.057 4.673zm-2.4-11.43l.018-.275.184.229-.018.275z" class="cls-2" data-name="Path 290" transform="translate(-128.143 -469.866)"/>
        <path id="Path_291" d="M281.8 521.666l.064-.03a5.1 5.1 0 0 0-4.932.212l4.873 6.319c.173-3.819.002-6.467-.005-6.501z" class="cls-2" data-name="Path 291" transform="translate(-249.47 -457.106)"/>
        <path id="Path_292" d="M283.634 651.079a32.092 32.092 0 0 1-1.347 3.222l7.18-3.92.01.1a12.722 12.722 0 0 0 1.208-2.975q.159-.613.289-1.229l-7.219 4.451c-.04.12-.08.237-.121.351z" class="cls-2" data-name="Path 292" transform="translate(-254.031 -563.82)"/>
        <path id="Path_293" d="M261.607 533.05l-4.985-6.464.043-.095a10.83 10.83 0 0 0-3.413 3.293l7.918 8.448c.23-1.851.361-3.61.437-5.182z" class="cls-2" data-name="Path 293" transform="translate(-229.281 -461.705)"/>
        <path id="Path_294" d="M111.853 579.527a7.537 7.537 0 0 0-3.679.788c-.054.029-.107.059-.159.089.379.21 2.593 1.457 5.489 3.479z" class="cls-2" data-name="Path 294" transform="translate(-105.472 -506.914)"/>
        <path id="Path_295" d="M109.1 633.268l-11.468 2.183-.063-.086a18.78 18.78 0 0 0 1.853 3.3l12.7-2.726c-1.022-.974-2.047-1.869-3.022-2.671z" class="cls-2" data-name="Path 295" transform="translate(-96.571 -552.727)"/>
        <path id="Path_296" d="M124.086 653.2q-.369-.368-.738-.722l-12.748 2.735-.064-.086q.384.547.818 1.094l-.064-.086z" class="cls-2" data-name="Path 296" transform="translate(-107.625 -569.102)"/>
        <path id="Path_297" d="M155.762 686.539a32.3 32.3 0 0 0-2.22-3.171l-12.479 2.767a25.988 25.988 0 0 0 2.963 1.821l-.065-.1z" class="cls-2" data-name="Path 297" transform="translate(-133.645 -595.435)"/>
        <path id="Path_298" d="M93.338 585.812l.009-.07a5.1 5.1 0 0 0-2.461 4.28l7.946-.733c-3.132-2.189-5.461-3.459-5.494-3.477z" class="cls-2" data-name="Path 298" transform="translate(-90.871 -512.213)"/>
        <path id="Path_299" d="M98.979 610.886l-8.128.75-.057-.087a10.83 10.83 0 0 0 .954 4.645l11.375-2.165c-1.442-1.182-2.857-2.237-4.144-3.143z" class="cls-2" data-name="Path 299" transform="translate(-90.786 -533.648)"/>
        <path id="Path_300" d="M132.5 661.975a43.592 43.592 0 0 0-3.131-3.495l-12.825 2.943q.591.737 1.27 1.466a15.621 15.621 0 0 0 2.136 1.877l12.55-2.783z" class="cls-2" data-name="Path 300" transform="translate(-112.74 -574.219)"/>
        <path id="Path_301" d="M163.689 439.723c.955 1.274 1.986 2.732 3 4.321l.145-7.33.08.051a14.3 14.3 0 0 0-3.539-1.892l.08.045z" class="cls-3" data-name="Path 301" transform="translate(-152.667 -383.606)"/>
        <path id="Path_302" d="M140.173 431.911a7.536 7.536 0 0 0-3.743-.388c-.06.011-.12.023-.179.036.3.317 2.015 2.187 4.145 5.006z" class="cls-3" data-name="Path 302" transform="translate(-129.543 -380.671)"/>
        <path id="Path_303" d="M214.781 502.26q.235.561.447 1.114l2.688-7.938.077.074q-.476-.9-1.01-1.742l-2.166 8.524z" class="cls-3" data-name="Path 303" transform="translate(-196.486 -433.81)"/>
        <path id="Path_304" d="M189.454 459.979l1.4-8.322.08.064a22.489 22.489 0 0 0-3.879-3.624l-.148 7.469q1.424 2.24 2.547 4.413z" class="cls-3" data-name="Path 304" transform="translate(-172.728 -394.877)"/>
        <path id="Path_305" d="M107.19 488.134l-.033-.1a18.779 18.779 0 0 0 .742 3.711l12.918 1.332c-.674-1.244-1.371-2.41-2.046-3.474z" class="cls-3" data-name="Path 305" transform="translate(-104.742 -428.921)"/>
        <path id="Path_306" d="M112.427 513.975l-.034-.1q.2.639.44 1.293l-.035-.1 13.075 1.162q-.237-.463-.479-.915z" class="cls-3" data-name="Path 306" transform="translate(-109.205 -450.949)"/>
        <path id="Path_307" d="M206.407 484.563l2.148-8.453.079.069a26.856 26.856 0 0 0-2.144-2.917l-1.424 8.435q.74 1.453 1.341 2.866z" class="cls-3" data-name="Path 307" transform="translate(-188.204 -416.33)"/>
        <path id="Path_308" d="M144.351 554.67l-12.723-1.225a25.98 25.98 0 0 0 2.255 2.647l-.032-.113 11.63 2.393a32.3 32.3 0 0 0-1.13-3.702z" class="cls-3" data-name="Path 308" transform="translate(-125.601 -484.682)"/>
        <path id="Path_309" d="M114.548 432.472l.03-.064a5.1 5.1 0 0 0-3.663 3.31l7.783 1.759c-2.306-3.05-4.124-4.977-4.15-5.005z" class="cls-3" data-name="Path 309" transform="translate(-107.944 -381.503)"/>
        <path id="Path_310" d="M218.667 514.746a32.094 32.094 0 0 1 1.017 3.341l3.03-7.6.074.074a12.723 12.723 0 0 0-.967-3.062q-.268-.574-.561-1.13l-2.721 8.033c.043.115.087.23.128.344z" class="cls-3" data-name="Path 310" transform="translate(-199.689 -444.552)"/>
        <path id="Path_311" d="M118.293 461.594c-1.007-1.57-2.026-3.011-2.97-4.27l-7.962-1.8-.027-.1a10.83 10.83 0 0 0-.528 4.713z" class="cls-3" data-name="Path 311" transform="translate(-104.398 -401.124)"/>
        <path id="Path_312" d="M117.835 527.561l12.8 1.232v-.008a43.594 43.594 0 0 0-1.9-4.291l-13.107-1.165q.334.884.754 1.787a15.621 15.621 0 0 0 1.452 2.445z" class="cls-3" data-name="Path 312" transform="translate(-111.963 -459.009)"/>
        <path id="Path_313" d="M312.519 547.9l.029.091a14.306 14.306 0 0 0-1.519-3.714l.033.085-2.887 3.847c-.077 1.591-.213 3.371-.443 5.243z" class="cls-3" data-name="Path 313" transform="translate(-275.722 -476.864)"/>
        <path id="Path_314" d="M313.621 527.76a7.537 7.537 0 0 0-2.635-2.686c-.053-.03-.107-.059-.161-.087.025.432.157 2.97 0 6.5z" class="cls-3" data-name="Path 314" transform="translate(-278.358 -460.423)"/>
        <path id="Path_315" d="M293.278 637.077q-.177.582-.366 1.143l7.134-4.4.012.106q.2-.994.333-1.985l-7.105 5.183z" class="cls-3" data-name="Path 315" transform="translate(-263.088 -551.597)"/>
        <path id="Path_316" d="M301.671 580.786l6.39-5.514.021.1a22.489 22.489 0 0 0-.676-5.266l-4.878 5.658q-.335 2.636-.857 5.022z" class="cls-3" data-name="Path 316" transform="translate(-270.555 -498.885)"/>
        <path id="Path_317" d="M303.119 606.584l-6.477 5.588q-.357 1.592-.8 3.063l7.046-5.14.016.1a26.859 26.859 0 0 0 .215-3.611z" class="cls-3" data-name="Path 317" transform="translate(-265.591 -529.98)"/>
        <path id="Path_318" d="M153.171 565.341q.009-.131.016-.269a22.349 22.349 0 0 0 2.932-4.495l-3.912-4.874q-.077-.249-.161-.5l4.164 5.188a32.293 32.293 0 0 0 1.49-3.573l-8.235-8.272.078-.2 8.224 8.261h.007a43.6 43.6 0 0 0 1.275-4.516l-8.167-8.084.051-.226 8.167 8.084q.113-.508.214-1.01l-8.143-8.291.04-.238 8.149 8.3c.274-1.388.482-2.731.639-3.981l-7.983-8.518.039-.1c-.189.276-.373.564-.552.864a16.46 16.46 0 0 0-.23-2.825l-3.059 7.672a24.7 24.7 0 0 1 .53 3.212c-.019.183-.035.367-.049.552l.1.1.017.295-.134-.134-.016.325a23.258 23.258 0 0 0-.6-4.331l-11.545-2.375c.582.6 1.191 1.177 1.814 1.737a14.11 14.11 0 0 0-3.73-.637l.09.018 1.7 4.5c1.3.917 2.733 1.985 4.192 3.181l-2.1-6.919.234.207 2.093 6.9q2.043 1.692 3.782 3.412l-.962-6.494.2.14.972 6.565q1.153 1.153 2.161 2.311l-.466-7.12.195.121.471 7.2-.045-.019q.4.461.769.922l.09-7.321.192.112-.092 7.448c.076.1.153.192.228.287a32.082 32.082 0 0 1 2 2.863l.043-.666q.08.3.161.582l-.025.379c.09.149.176.3.262.447q.1.34.2.662-.285-.527-.594-1.044l-11.714 1.31a59.908 59.908 0 0 0 14.289 4.872c-.116-.511-.256-1.017-.418-1.519l.125-.133.06.18-.065.07.076-.036q.169.529.3 1.055c.036-.285.083-.717.125-1.264 2.11-1.056 7.573-4.142 10.347-8.981l-7.249 3.958a22.57 22.57 0 0 1-3.057 4.673zm-2.4-11.43l.018-.275.184.229-.018.275z" class="cls-3" data-name="Path 318" transform="translate(-128.143 -469.866)"/>
        <path id="Path_319" d="M281.8 521.666l.064-.03a5.1 5.1 0 0 0-4.932.212l4.873 6.319c.173-3.819.002-6.467-.005-6.501z" class="cls-3" data-name="Path 319" transform="translate(-249.47 -457.106)"/>
        <path id="Path_320" d="M283.634 651.079a32.092 32.092 0 0 1-1.347 3.222l7.18-3.92.01.1a12.722 12.722 0 0 0 1.208-2.975q.159-.613.289-1.229l-7.219 4.451c-.04.12-.08.237-.121.351z" class="cls-3" data-name="Path 320" transform="translate(-254.031 -563.82)"/>
        <path id="Path_321" d="M261.607 533.05l-4.985-6.464.043-.095a10.83 10.83 0 0 0-3.413 3.293l7.918 8.448c.23-1.851.361-3.61.437-5.182z" class="cls-3" data-name="Path 321" transform="translate(-229.281 -461.705)"/>
        <path id="Path_322" d="M111.853 579.527a7.537 7.537 0 0 0-3.679.788c-.054.029-.107.059-.159.089.379.21 2.593 1.457 5.489 3.479z" class="cls-3" data-name="Path 322" transform="translate(-105.472 -506.914)"/>
        <path id="Path_323" d="M109.1 633.268l-11.468 2.183-.063-.086a18.78 18.78 0 0 0 1.853 3.3l12.7-2.726c-1.022-.974-2.047-1.869-3.022-2.671z" class="cls-3" data-name="Path 323" transform="translate(-96.571 -552.727)"/>
        <path id="Path_324" d="M124.086 653.2q-.369-.368-.738-.722l-12.748 2.735-.064-.086q.384.547.818 1.094l-.064-.086z" class="cls-3" data-name="Path 324" transform="translate(-107.625 -569.102)"/>
        <path id="Path_325" d="M155.762 686.539a32.3 32.3 0 0 0-2.22-3.171l-12.479 2.767a25.988 25.988 0 0 0 2.963 1.821l-.065-.1z" class="cls-3" data-name="Path 325" transform="translate(-133.645 -595.435)"/>
        <path id="Path_326" d="M93.338 585.812l.009-.07a5.1 5.1 0 0 0-2.461 4.28l7.946-.733c-3.132-2.189-5.461-3.459-5.494-3.477z" class="cls-3" data-name="Path 326" transform="translate(-90.871 -512.213)"/>
        <path id="Path_327" d="M98.979 610.886l-8.128.75-.057-.087a10.83 10.83 0 0 0 .954 4.645l11.375-2.165c-1.442-1.182-2.857-2.237-4.144-3.143z" class="cls-3" data-name="Path 327" transform="translate(-90.786 -533.648)"/>
        <path id="Path_328" d="M132.5 661.975a43.592 43.592 0 0 0-3.131-3.495l-12.825 2.943q.591.737 1.27 1.466a15.621 15.621 0 0 0 2.136 1.877l12.55-2.783z" class="cls-3" data-name="Path 328" transform="translate(-112.74 -574.219)"/>
        <path id="Rectangle_171" d="M0 0H2.213V16.23H0z" class="cls-4" data-name="Rectangle 171" transform="translate(70.716 61.232)"/>
        <path id="Rectangle_172" d="M0 0H2.213V16.23H0z" class="cls-4" data-name="Rectangle 172" transform="translate(96.832 61.232)"/>
        <path id="Rectangle_173" d="M0 0H80.561V3.689H0z" class="cls-2" data-name="Rectangle 173" transform="translate(44.6 58.724)"/>
        <path id="Rectangle_174" d="M0 0H80.561V3.689H0z" class="cls-2" data-name="Rectangle 174" transform="translate(44.6 70.38)"/>
        <path id="Rectangle_175" d="M0 0H80.561V2.213H0z" class="cls-2" data-name="Rectangle 175" transform="translate(44.6 63.593)"/>
        <path id="Rectangle_176" d="M0 0H80.561V2.213H0z" class="cls-2" data-name="Rectangle 176" transform="translate(44.6 66.987)"/>
        <path id="Rectangle_177" d="M0 0H2.508V19.476H0z" class="cls-4" data-name="Rectangle 177" transform="translate(44.379 58.06)"/>
        <path id="Rectangle_178" d="M0 0H2.508V19.476H0z" class="cls-4" data-name="Rectangle 178" transform="translate(122.653 57.986)"/>
        <path id="Rectangle_179" d="M0 0H2.508V20.214H0z" class="cls-4" data-name="Rectangle 179" transform="translate(37.518 82.627)"/>
        <path id="Rectangle_180" d="M0 0H2.508V10.771H0z" class="cls-4" data-name="Rectangle 180" transform="translate(45.781 81.889)"/>
        <path id="Rectangle_181" d="M0 0H2.508V10.771H0z" class="cls-4" data-name="Rectangle 181" transform="translate(122.063 81.889)"/>
        <path id="Rectangle_182" d="M0 0H2.508V20.214H0z" class="cls-4" data-name="Rectangle 182" transform="translate(129.145 82.627)"/>
        <path id="Rectangle_183" d="M0 0H94.136V2.656H0z" class="cls-4" data-name="Rectangle 183" transform="translate(37.518 82.627)"/>
        <path id="Path_329" d="M261.063 520l-6.787 5.9h94.136l-6.492-5.9z" class="cls-2" data-name="Path 329" transform="translate(-216.758 -443.275)"/>
        <path id="Path_330" fill="#6c63ff" d="M225.884 107.767l-.019-.106-1.816-.962h-.285l-.109-.209h-3.743l-.868.209h-3.2l-.866 1.011-.009.062c-.056.361-1.309 8.862 2 11.566l1.378.64h.891l-.174-.348.775.348h2.508l.045-.067 1.488-.557.038-.044c.133-.16 3.297-4.003 1.966-11.543z" data-name="Path 330" opacity="0.1" transform="translate(-196.41 -103.674)"/>
        <path id="Rectangle_184" d="M0 0H1.475V3.836H0z" class="cls-2" data-name="Rectangle 184" transform="translate(23.501 12.542)"/>
        <path id="Rectangle_185" d="M0 0H2.656V73.774H0z" class="cls-4" data-name="Rectangle 185" transform="translate(22.837 21.321)"/>
        <path id="Rectangle_186" d="M0 0H3.984V2.508H0z" class="cls-4" data-name="Rectangle 186" transform="translate(22.173 20.067)"/>
        <path id="Path_331" d="M140.276 105l2.508 2.656-1.033 1.918 2.066.443 1.918-.443-1.18-2.066 2.361-2.508z" class="cls-4" data-name="Path 331" transform="translate(-119.578 -89.507)"/>
        <path id="Path_332" d="M211.242 103.472l-1.18-1.18.885-.885h11.214l.885 1.033-1.328 1.033s-7.082-.296-10.476-.001z" class="cls-4" data-name="Path 332" transform="translate(-192.463 -99.34)"/>
        <path id="Path_333" d="M225.884 104.7l-.019-.106-1.816-.962-.829-.44-4.655-.3-2.61.614-.108.125-.866 1.011-.009.062c-.056.361-1.309 8.862 2 11.566l1.378.64 1.16.539-.269-.539-.441-.881c-.462-2.688-1.477-9.751-.829-11.227l2.676-.863 2.376.882c.164 1.061 1.223 8.5-.633 11.15l-.04.058v.831l1.533-.574.038-.044c.13-.155 3.294-3.999 1.963-11.542zm-2.272 11.214l-.823.31v-.056c2.036-3.038.705-11.2.648-11.544l-.021-.127-2.328-.865-.432-.161-.5.161-2.5.806-.043.075c-.949 1.7.679 11.22.748 11.624l.006.032.176.351-1.321-.609c-2.944-2.451-1.934-10.3-1.827-11.076l.8-.93 1.16-.273 1.247-.294 2.052.133 2.44.158h.006l2.365 1.251c1.172 6.839-1.517 10.594-1.855 11.031z" class="cls-4" data-name="Path 333" transform="translate(-196.41 -100.61)"/>
        <ellipse id="Ellipse_37" cx="3.984" cy="2.066" class="cls-4" data-name="Ellipse 37" rx="3.984" ry="2.066" transform="translate(20.255)"/>
        <path id="Path_334" d="M227.423 706.406l-2.361 7.525a10.5 10.5 0 0 0 8.705 0l-2.361-7.525z" class="cls-4" data-name="Path 334" transform="translate(-205.25 -615.074)"/>
        <circle id="Ellipse_38" cx="1.18" cy="1.18" r="1.18" class="cls-3" data-name="Ellipse 38" transform="translate(23.058 10.623)"/>
        <path id="Path_335" d="M520.306 430.307a4.994 4.994 0 0 1 1.367-.685 34.852 34.852 0 0 1 9.63-2.1c2.864-.2 5.967.038 8.2 1.838a2.821 2.821 0 0 1 .832.97 3.551 3.551 0 0 1 .105 1.976 2.233 2.233 0 0 1-.192.744 1.671 1.671 0 0 1-1.686.705c-.644-.069-1.248-.341-1.882-.467a8.412 8.412 0 0 0-1.189-.121l-3.982-.216a29 29 0 0 0-7.413.234 7.384 7.384 0 0 0-2.142.738c-.555.311-.928.758-1.443.183-.899-1.006-1.4-2.866-.205-3.799z" class="cls-6" data-name="Path 335" transform="translate(-456.331 -377.29)"/>
        <path id="Path_336" d="M559.786 453.08s5.355-2.4 7.387.369-1.108 1.662-1.108 1.662l-3.509 1.108-3.878-.739z" class="cls-7" data-name="Path 336" transform="translate(-489.641 -398.303)"/>
        <path id="Path_337" d="M568.065 437.166s.739 3.509.185 4.432 3.139 2.216 3.139 2.216l3.509-1.477s-.923-5.725 0-6.833z" class="cls-8" data-name="Path 337" transform="translate(-497.643 -384.143)"/>
        <path id="Path_338" d="M568.065 437.166s.739 3.509.185 4.432 3.139 2.216 3.139 2.216l3.509-1.477s-.923-5.725 0-6.833z" class="cls-1" data-name="Path 338" transform="translate(-497.643 -384.143)"/>
        <path id="Path_339" d="M533.207 711a20.2 20.2 0 0 1 1.22 3.2.26.26 0 0 0 .323.215h3.285c.405 0 .949-.131.945-.536 0-.285-.294-.462-.511-.647a4.412 4.412 0 0 1-1.007-2.109 7.156 7.156 0 0 0-2.663-3.576 1.56 1.56 0 0 0-.569-.281 1.587 1.587 0 0 0-.624.034c-.577.116-2.73.514-2.323 1.353.175.361.824.737 1.1 1.074a7.717 7.717 0 0 1 .824 1.273z" class="cls-9" data-name="Path 339" transform="translate(-466.246 -615.785)"/>
        <path id="Path_340" d="M608.106 696.06a7.475 7.475 0 0 1-.386.71c-.476.785-1.037 1.517-1.481 2.321a3.83 3.83 0 0 0-.54 1.615 1.794 1.794 0 0 0 .627 1.526 2.3 2.3 0 0 0 1.723.294 8.335 8.335 0 0 1 1.779-.209c-.2-1.139.759-2.141 1-3.272.067-.318.077-.647.168-.959a4.7 4.7 0 0 1 .372-.822 10.628 10.628 0 0 0 1-2.959 17.649 17.649 0 0 0-3.2-.086c-.855.181-.729 1.126-1.062 1.841z" class="cls-9" data-name="Path 340" transform="translate(-529.722 -604.657)"/>
        <path id="Path_341" d="M465.053 564.825a4.985 4.985 0 0 0-.056 4.5c.59 1.444 1.529 2.721 2.172 4.142.41.906.7 1.867 1.158 2.748a22.371 22.371 0 0 1 1.789 3.223 11.171 11.171 0 0 0 .7 2.242 6.871 6.871 0 0 0 .816 1.012 9.35 9.35 0 0 1 1.88 3.358 3.347 3.347 0 0 1 2.558-2.018 9.868 9.868 0 0 1 3.391.084 14.259 14.259 0 0 1-1.636-3.054 30.673 30.673 0 0 1-.713-3.28 26.643 26.643 0 0 0-2.626-6.347l5.436-.431a21.184 21.184 0 0 1 2.671-.1c1.4.066 2.778.41 4.173.569a7.117 7.117 0 0 0 4.116-.535 19.723 19.723 0 0 0-3.539 11.648 4.51 4.51 0 0 1 6.827 1.611c2.13-2.911 1.877-6.964 3.565-10.152.347-.656.772-1.266 1.147-1.906a28.1 28.1 0 0 0 1.813-4.005 5.409 5.409 0 0 0 .495-3.767 3.931 3.931 0 0 0-.807-1.241 5.431 5.431 0 0 0-3.779-1.9c-2.225-.051-4.063 1.6-6.014 2.668a13.841 13.841 0 0 1-7.6 1.575 35.959 35.959 0 0 1-7.8-1.84 37.093 37.093 0 0 0-3.89-1 7.272 7.272 0 0 0-3.218.3 4.891 4.891 0 0 0-3.029 1.896z" class="cls-6" data-name="Path 341" transform="translate(-409.348 -491.314)"/>
        <path id="Path_342" d="M561.623 390.98a5.545 5.545 0 0 1-5.54 5.54 5.4 5.4 0 0 1-.984-.089 5.54 5.54 0 1 1 6.524-5.451z" class="cls-8" data-name="Path 342" transform="translate(-482.707 -341.466)"/>
        <path id="Path_343" d="M531.513 458.124a6.511 6.511 0 0 1 1.385.831c.369.369 1.477 2.4 3.324 1.108s2.031-2.031 2.585-2.031 1.293 1.108 1.293 1.108l5.078 15.235a21.266 21.266 0 0 1-4.709 3.97c-2.955 1.847-6.463 2.77-8.125 2.031s-4.8-1.293-5.355-2.77-1.477-5.909-1.477-5.909l2.585-11.265z" class="cls-7" data-name="Path 343" transform="translate(-461.368 -403.347)"/>
        <path id="Path_344" d="M514.3 466.841a7.254 7.254 0 0 0 .5-2.812 17.048 17.048 0 0 0-.075-2.844c-.164-1.235-.566-2.425-.82-3.645a15.41 15.41 0 0 1-.323-3.253 2.652 2.652 0 0 1 .312-1.442 4.6 4.6 0 0 0 .6-.845c.232-.641-.342-1.313-.971-1.577a3.819 3.819 0 0 0-2.391-.1 11.373 11.373 0 0 0-2.249.92 5.147 5.147 0 0 0-1.469.95 4.8 4.8 0 0 0-1.029 2.219 4.543 4.543 0 0 0-.184 1.955c.2 1.053 1.06 1.845 1.517 2.815a6.158 6.158 0 0 1 .284 3.665c-.211 1.227-.587 2.427-.7 3.666a4.932 4.932 0 0 0 .839 3.545c.316.4 1.175 1.336 1.754 1.23.455-.084 1.115-1.085 1.482-1.4a10.026 10.026 0 0 0 2.923-3.047z" class="cls-6" data-name="Path 344" transform="translate(-444.868 -396.656)"/>
        <path id="Path_345" d="M609.691 443.435a5.552 5.552 0 0 1-.972 2.89 20.232 20.232 0 0 0-1.555 2.666 6.11 6.11 0 0 0-.285 3.759 12.119 12.119 0 0 0 .407 1.258l1.012 2.775a4.817 4.817 0 0 0 .587 1.232 3.98 3.98 0 0 0 .8.767 7.443 7.443 0 0 0 2.6 1.357 4.4 4.4 0 0 0 2.893-.165 41.861 41.861 0 0 1 1.8-11.095 4.026 4.026 0 0 0 .267-2.042 3.851 3.851 0 0 0-1.363-1.848c-1.771-1.59-3.718-3.261-6.089-3.475-1.375-.124-.114 1.176-.102 1.921z" class="cls-6" data-name="Path 345" transform="translate(-530.584 -389.259)"/>
        <path id="Path_346" d="M532.829 582.87c.14.275.228.574.367.85a4.75 4.75 0 0 0 .753 1.013c1.235 1.369 2.744 2.733 4.586 2.816a1.258 1.258 0 0 0 .54-.068 1.072 1.072 0 0 0 .575-.822 3.5 3.5 0 0 0-.5-2.083 9.492 9.492 0 0 0-2.738-3.789 5.138 5.138 0 0 0-4.433-.667c-.668.206-1.776.565-.891 1.175a4.552 4.552 0 0 1 1.741 1.575z" class="cls-8" data-name="Path 346" transform="translate(-465.841 -507.225)"/>
        <path id="Path_347" d="M562.493 464.1a4.128 4.128 0 0 0-.867-1.4 3.216 3.216 0 0 0-1.324-.671 7.239 7.239 0 0 0-1.942-.278 2.117 2.117 0 0 0-2.021.913 2.154 2.154 0 0 0 .206 1.79 1.755 1.755 0 0 0 .547.74 3.039 3.039 0 0 0 1.173.3 5.411 5.411 0 0 1 1.734.786l1.37.828 2.353 1.422c-.062-.037-.04-1.651-.112-1.915a18.609 18.609 0 0 0-1.117-2.515z" class="cls-8" data-name="Path 347" transform="translate(-487.544 -406.522)"/>
        <path id="Path_348" d="M530.636 747.689c-.551.748-.44 1.818-.928 2.608-.423.685-1.219 1.045-1.748 1.652a4.431 4.431 0 0 0-.449.647 2.758 2.758 0 0 0-.406 2.7 2.9 2.9 0 0 0 1.955 1.1 7.173 7.173 0 0 0 2.888.232 2.877 2.877 0 0 0 2.235-1.668 6.448 6.448 0 0 1 .239-.674c.519-1.022 2.147-1.033 2.679-2.049a2.667 2.667 0 0 0-.312-2.3l-1.043-2.217c-.346-.736-1.75-.313-2.482-.489-.955-.225-1.941-.479-2.628.458z" class="cls-6" data-name="Path 348" transform="translate(-462.54 -649.697)"/>
        <path id="Path_349" d="M596.047 736.4a2.967 2.967 0 0 0-.944 1.293 14.146 14.146 0 0 0-.866 3.784 4.584 4.584 0 0 0-.03 1.552 3.111 3.111 0 0 0 2.2 2.146 9.168 9.168 0 0 0 3.2.219 2.289 2.289 0 0 0 1.005-.2 1.558 1.558 0 0 0 .657-1.605 4.568 4.568 0 0 0-.751-1.673 4.584 4.584 0 0 1-.752-1.673c-.157-1.024.286-2.527-.343-3.453s-2.534-.983-3.376-.39z" class="cls-6" data-name="Path 349" transform="translate(-519.881 -640.309)"/>
        <path id="Path_350" d="M551.113 371.442a1.406 1.406 0 0 0-.61-.8 3.226 3.226 0 0 0-.129-1.051c-.336-.992-1.13-.935-1.88-1.374-.325-.19-.305-.358-.475-.671a2.49 2.49 0 0 0-.959-.979 3.452 3.452 0 0 0-1.558-.661c-1.2-.082-2.113 1.043-3.256 1.4-.5.159-1.045.166-1.552.316a1.428 1.428 0 0 0-1.087 1.033c-.035.241.027.489-.009.731-.07.48-.491.816-.773 1.21a2.982 2.982 0 0 0-.054 3.055 4.289 4.289 0 0 0 .359.562 3.459 3.459 0 0 0 .379 1.284 6.4 6.4 0 0 0 2.251 2.248 5.318 5.318 0 0 1-.133-.959.661.661 0 0 1 .041-.318c.1-.209.363-.264.564-.378a1.426 1.426 0 0 0 .591-1.239c.012-.479-.089-.958-.039-1.434a.784.784 0 0 1 .268-.576.927.927 0 0 1 .506-.121 5.708 5.708 0 0 0 2.5-.454 3.7 3.7 0 0 1 .777-.393 1.652 1.652 0 0 1 1.661.83c.368.548.552 1.2.892 1.768a1.8 1.8 0 0 0 1.584 1 .263.263 0 0 0 .2-.087.294.294 0 0 0 .036-.167l.037-2.512a3.8 3.8 0 0 0-.132-1.263z" class="cls-6" data-name="Path 350" transform="translate(-472.336 -324.814)"/>
        <path id="Path_351" d="M485.589 479.04a10.052 10.052 0 0 0-1.429 2.426c-.171.527-.224 1.084-.347 1.623-.412 1.8-1.6 3.394-1.721 5.235a2.489 2.489 0 0 0 .175 1.2 2.986 2.986 0 0 0 1.937 1.38 6.169 6.169 0 0 1 2.238.953 6.851 6.851 0 0 1 .848.983 8.214 8.214 0 0 0 3.923 2.684c-.122-.84-.179-1.853.493-2.372a2.432 2.432 0 0 1 1.307-.371l2.164-.187a27.805 27.805 0 0 0-4.743-3.695 3.45 3.45 0 0 1-1.523-1.407 3.4 3.4 0 0 1-.172-1.3 32 32 0 0 0-.408-4.8c-.178-1.1-.414-2.2-.684-3.281-.076-.3-.523-1.67-1.074-1.35-.13.075-.251.941-.327 1.121a6.8 6.8 0 0 1-.657 1.158z" class="cls-6" data-name="Path 351" transform="translate(-424.344 -419.271)"/>
        <path id="Path_352" d="M603.522 470.08l.884 1.838a4.416 4.416 0 0 1 .557 2.485l.052 5.512a8.027 8.027 0 0 1-.181 2.2 1.759 1.759 0 0 1-.3.655 2.047 2.047 0 0 1-.523.421c-1.672 1.045-3.841 1.639-5.608.763a7.759 7.759 0 0 1-1.15-.751 9.137 9.137 0 0 1-1.945-1.753 12.061 12.061 0 0 1-1.242-2.45 18.82 18.82 0 0 0-2.558-4.2 1.106 1.106 0 0 1-.317-.628c-.011-.483.562-.721 1.009-.9a2.467 2.467 0 0 0 1.611-1.736c1.624 2.129 3.416 4.379 5.978 5.157a.264.264 0 0 0 .407-.226c.145-.609.2-1.235.3-1.852a10.551 10.551 0 0 1 1.113-3.209c.306-.566 1.291-2.623 1.913-1.326z" class="cls-6" data-name="Path 352" transform="translate(-517.357 -413.258)"/>
        <path id="Path_353" d="M519.557 508.533a8.475 8.475 0 0 1-.81 3.777 3.12 3.12 0 0 0-.317.832 2.247 2.247 0 0 0 .66 1.7 7 7 0 0 0 2.995 2.083" class="cls-1" data-name="Path 353" transform="translate(-455.319 -446.397)"/>
        <path id="Path_354" d="M651.3 501.081a1.806 1.806 0 0 0 .088 1.1 11.053 11.053 0 0 1 .4 3.207.117.117 0 0 1-.137.14 1.472 1.472 0 0 1-1.2-.285" class="cls-1" data-name="Path 354" transform="translate(-567.872 -440.044)"/>
        <path id="Rectangle_187" d="M0 0H52.72V10.409H0z" class="cls-2" data-name="Rectangle 187" transform="translate(97.548 18.812)"/>
        <path id="Rectangle_188" d="M0 0H52.72V10.409H0z" class="cls-2" data-name="Rectangle 188" transform="translate(97.548 30.978)"/>
        <circle id="Ellipse_39" cx="3.109" cy="3.109" r="3.109" class="cls-3" data-name="Ellipse 39" transform="translate(99.981 20.84)"/>
        <path id="Rectangle_189" d="M0 0H30.686V0.676H0z" class="cls-3" data-name="Rectangle 189" transform="translate(110.525 22.733)"/>
        <path id="Rectangle_190" d="M0 0H30.686V0.676H0z" class="cls-3" data-name="Rectangle 190" transform="translate(110.525 24.49)"/>
        <circle id="Ellipse_40" cx="3.109" cy="3.109" r="3.109" class="cls-10" data-name="Ellipse 40" transform="translate(99.981 33.141)"/>
        <path id="Rectangle_191" d="M0 0H30.686V0.676H0z" class="cls-10" data-name="Rectangle 191" transform="translate(110.525 35.034)"/>
        <path id="Rectangle_192" d="M0 0H30.686V0.676H0z" class="cls-10" data-name="Rectangle 192" transform="translate(110.525 36.791)"/>
        <path id="Rectangle_193" d="M0 0H52.72V10.409H0z" class="cls-2" data-name="Rectangle 193" transform="translate(97.548 42.93)"/>
        <circle id="Ellipse_41" cx="3.109" cy="3.109" r="3.109" class="cls-10" data-name="Ellipse 41" transform="translate(99.981 45.093)"/>
        <path id="Rectangle_194" d="M0 0H30.686V0.676H0z" class="cls-10" data-name="Rectangle 194" transform="translate(110.525 46.985)"/>
        <path id="Rectangle_195" d="M0 0H30.686V0.676H0z" class="cls-10" data-name="Rectangle 195" transform="translate(110.525 48.742)"/>
        <path id="Path_355" d="M690.332 150.665l-1.114-1.485.264-.2.907 1.209 3.572-2.922.209.255z" class="cls-7" data-name="Path 355" transform="translate(-587.526 -125.541)"/>
    </g>
</svg>
