<svg xmlns="http://www.w3.org/2000/svg" id="undraw_all_the_data_h4ki" width="149.721" height="111.794" viewBox="0 0 149.721 111.794">
    <defs>
        <style>
            .cls-1{fill:#3f3d56}.cls-2{fill:#f2f2f2}.cls-3{fill:none;stroke:#3f3d56;stroke-miterlimit:10;stroke-width:2px}.cls-4{fill:#6c63ff}.cls-5{fill:#575a89}.cls-6{fill:#ffb9b9}.cls-7{opacity:.1}.cls-8{fill:#2f2e41}
        </style>
    </defs>
    <ellipse id="Ellipse_42" cx="19.306" cy="2.505" class="cls-1" data-name="Ellipse 42" rx="19.306" ry="2.505" transform="translate(111.109 106.783)"/>
    <path id="Rectangle_196" d="M0 0H58.284V36.361H0z" class="cls-2" data-name="Rectangle 196" transform="translate(0 4.543)"/>
    <path id="Rectangle_197" d="M0 0H58.284V36.361H0z" class="cls-3" data-name="Rectangle 197" transform="translate(3.676 1)"/>
    <path id="Path_356" d="M294.885 98.551A12.566 12.566 0 0 0 286 77.1v12.566z" class="cls-1" data-name="Path 356" transform="translate(-253.115 -70.552)"/>
    <path id="Path_357" d="M204.56 77.1a12.567 12.567 0 0 0-6.011 23.6l6.011-11.037z" class="cls-4" data-name="Path 357" transform="translate(-171.674 -70.552)"/>
    <path id="Path_358" d="M255.929 179.985l-8.885-8.885-6.011 11.037a12.572 12.572 0 0 0 14.896-2.152z" class="cls-5" data-name="Path 358" transform="translate(-214.158 -151.986)"/>
    <path id="Rectangle_198" d="M0 0H2.406V2.406H0z" class="cls-4" data-name="Rectangle 198" transform="translate(5.882 29.808)"/>
    <path id="Rectangle_199" d="M0 0H2.406V2.406H0z" class="cls-1" data-name="Rectangle 199" transform="translate(9.358 29.808)"/>
    <path id="Rectangle_200" d="M0 0H2.406V2.406H0z" class="cls-5" data-name="Rectangle 200" transform="translate(12.833 29.808)"/>
    <path id="Rectangle_201" d="M0 0H9.892V0.401H0z" class="cls-1" data-name="Rectangle 201" transform="translate(47.456 30.343)"/>
    <path id="Rectangle_202" d="M0 0H9.892V0.401H0z" class="cls-1" data-name="Rectangle 202" transform="translate(47.456 31.546)"/>
    <path id="Rectangle_203" d="M0 0H9.892V0.401H0z" class="cls-1" data-name="Rectangle 203" transform="translate(47.456 32.749)"/>
    <path id="Rectangle_204" d="M0 0H33.153V36.361H0z" class="cls-2" data-name="Rectangle 204" transform="translate(18.314 55.207)"/>
    <path id="Rectangle_205" d="M0 0H33.153V36.361H0z" class="cls-3" data-name="Rectangle 205" transform="translate(21.656 51.732)"/>
    <path id="Rectangle_206" d="M0 0H1.787V1.787H0z" class="cls-4" data-name="Rectangle 206" transform="translate(23.394 83.99)"/>
    <path id="Rectangle_207" d="M0 0H1.787V1.787H0z" class="cls-1" data-name="Rectangle 207" transform="translate(25.976 83.99)"/>
    <path id="Rectangle_208" d="M0 0H1.787V1.787H0z" class="cls-5" data-name="Rectangle 208" transform="translate(28.558 83.99)"/>
    <path id="Rectangle_209" d="M0 0H6.951V0.282H0z" class="cls-1" data-name="Rectangle 209" transform="translate(43.446 84.767)"/>
    <path id="Rectangle_210" d="M0 0H6.951V0.282H0z" class="cls-1" data-name="Rectangle 210" transform="translate(43.446 85.612)"/>
    <path id="Rectangle_211" d="M0 0H6.951V0.282H0z" class="cls-1" data-name="Rectangle 211" transform="translate(43.446 86.458)"/>
    <path id="Path_359" d="M326 463.1v2.941a8.823 8.823 0 0 1 6.239 15.062l2.08 2.08A11.764 11.764 0 0 0 326 463.1z" class="cls-1" data-name="Path 359" transform="translate(-287.768 -404.952)"/>
    <path id="Path_360" d="M288.189 599.848l-2.08-2.08a8.821 8.821 0 0 1-11.577.785l-1.78 2.342a11.764 11.764 0 0 0 15.437-1.047z" class="cls-5" data-name="Path 360" transform="translate(-241.639 -521.618)"/>
    <path id="Path_361" d="M240.937 474.864a8.823 8.823 0 0 1 8.823-8.823V463.1a11.764 11.764 0 0 0-7.118 21.13l1.78-2.342a8.808 8.808 0 0 1-3.485-7.024z" class="cls-4" data-name="Path 361" transform="translate(-211.527 -404.952)"/>
    <path id="Path_362" d="M926.176 172.267s-.545 4.052.857 4.519 1.013 4.052 1.013 4.052l-4.208 3.195-3.74.312-.935-4.831.545-1.247s2.1-2.493.623-5.065 5.845-.935 5.845-.935z" class="cls-6" data-name="Path 362" transform="translate(-801.637 -152.553)"/>
    <path id="Path_363" d="M926.176 172.267s-.545 4.052.857 4.519 1.013 4.052 1.013 4.052l-4.208 3.195-3.74.312-.935-4.831.545-1.247s2.1-2.493.623-5.065 5.845-.935 5.845-.935z" class="cls-7" data-name="Path 363" transform="translate(-801.637 -152.553)"/>
    <path id="Path_364" d="M838.455 276.333l-4.909 11.532s-3.818-2.182-6.078-1.948-5.065-2.493-5.065-2.493l2.805-13.558 5.221-14.415 7.247 4.6z" class="cls-5" data-name="Path 364" transform="translate(-717.811 -225.06)"/>
    <path id="Path_365" d="M838.455 276.333l-4.909 11.532s-3.818-2.182-6.078-1.948-5.065-2.493-5.065-2.493l2.805-13.558 5.221-14.415 7.247 4.6z" class="cls-7" data-name="Path 365" transform="translate(-717.811 -225.06)"/>
    <path id="Path_366" d="M937.462 739.668v3.74h-3.506l.545-4.364z" class="cls-5" data-name="Path 366" transform="translate(-809.105 -639.383)"/>
    <path id="Path_367" d="M1008.187 695.328l2.571 1.558-1.87 4.286-1.948-.234-1.87-2.649z" class="cls-5" data-name="Path 367" transform="translate(-870.712 -601.51)"/>
    <path id="Path_368" d="M911.547 403.505l4.6 10.831s-1.636 12-1.558 13.013a3.661 3.661 0 0 1-.234 2.26 3.216 3.216 0 0 0-.312 2.416c.234 1.013.312 1.4.156 1.792s-1.247 16.441-1.792 17.532.312 2.883-.234 3.039-4.6-.234-4.831-1.169.779-3.195.234-3.9.078-25.948-.7-27.662-9.351-3.273-9.351-3.273-.779-4.987-.312-5.766 1.091-5.688 1.091-5.688z" class="cls-8" data-name="Path 368" transform="translate(-782.488 -353.323)"/>
    <path id="Path_369" d="M967.079 794.218s2.182-2.571 4.052 0c0 0 .156 3.039 1.48 3.662s.7 3.117-1.169 3.195-4.286.39-4.364-.623.312-1.636-.39-1.948 0-2.1 0-2.1z" class="cls-8" data-name="Path 369" transform="translate(-842.54 -690.816)"/>
    <path id="Path_370" d="M909.336 502.8s-.078 5.61-.623 6.39-.857 1.247-.545 2.1.779 2.416.545 2.727.234 1.948.234 1.948a20.651 20.651 0 0 1 8.805 8.883s2.883 4.753 3.74 4.831 1.87-.545 1.4 1.247-2.26 4.13-3.584 3.9-2.337-2.493-2.337-2.493-10.361-10.52-11.452-10.833-4.208-2.805-4.753-4.364-1.714-14.571-1.169-15.428a10.2 10.2 0 0 1 2.571-2.026z" class="cls-8" data-name="Path 370" transform="translate(-784.563 -436.645)"/>
    <path id="Path_371" d="M1055.29 727.6s4.831.156 4.909 1.325-2.026 8.1-1.714 9.74-2.416 5.377-4.208 4.6-.39-4.831-.39-4.831-1.792-5.532-1.48-5.61 3.429-1.013 3.273-1.948-.39-3.276-.39-3.276z" class="cls-8" data-name="Path 371" transform="translate(-917.037 -634.09)"/>
    <circle id="Ellipse_43" cx="4.831" cy="4.831" r="4.831" class="cls-6" data-name="Ellipse 43" transform="translate(116.085 14.221)"/>
    <path id="Path_372" d="M893.085 212.556s-2.649 2.805-4.6 2.338-2.961-3.818-2.961-3.818l-3.506-.623s-2.494 11.065-2.494 12.156 2.494 12.857 2.494 14.961-2.026 3.351 1.091 3.273 1.636-1.091 6.156-1.169 5.221.935 6.156-.7a13.033 13.033 0 0 1 2.338-2.883l-1.636-5.766-.234-16.286s-2-3.9-2.908-3.584c.002-.003.494 1.711.104 2.101z" class="cls-4" data-name="Path 372" transform="translate(-767.299 -186.062)"/>
    <path id="Path_373" d="M969.387 205.411s4.155.455 5.323 1.313 4.442 1.48 4.364 2.1-3.818 9.506-3.818 9.506-1.714 7.013-.234 8.649 7.013 19.48 6.078 20.961-3.9-4.519-3.9-4.519-3.974-12.857-6.156-15.039-2.338-13.948-2.338-14.493.681-8.478.681-8.478z" class="cls-5" data-name="Path 373" transform="translate(-844.56 -181.711)"/>
    <path id="Path_374" d="M826.167 203.52s-5.119-1.929-6.911-1.15a12.551 12.551 0 0 1-2.883.935l-.623 7.636s-.234 10.987-2.26 13.636-3.351 13.714-3.039 14.805-.545 2.961.779 2.493 4.987-11.221 4.987-11.221 0-6.156 2.182-7.87 5.766-8.805 5.922-10.519a53.118 53.118 0 0 1 1.636-6.467z" class="cls-5" data-name="Path 374" transform="translate(-707.418 -178.916)"/>
    <path id="Path_375" d="M1000.4 385.02s-2.338 4.364-2.65 5.143-2.494 6.078-5.61 4.909 3.039-6.857 3.039-6.857l1.4-4.753s3.669-.779 3.821 1.558z" class="cls-6" data-name="Path 375" transform="translate(-864.097 -335.852)"/>
    <path id="Path_376" d="M766.672 207.181h-.779a1.794 1.794 0 0 0-1.714-.234c-.935.39-3.117-.156-3.117.078s-2.416-.7-3.428-.234a21.922 21.922 0 0 1-4.675.623s-1.481 3.74-.468 4.442 2.493.156 3.195.7 2.026-.078 2.493.623 2.182 1.948 2.571 1.169-.39-1.48 1.247-.623a10.942 10.942 0 0 0 4.208.857z" class="cls-5" data-name="Path 376" transform="translate(-656.938 -182.792)"/>
    <path id="Path_377" d="M915.045 114.148a5.2 5.2 0 0 0-1.995.125 2.736 2.736 0 0 1-1.952-.225 3.087 3.087 0 0 1-.907-1.158 1.335 1.335 0 0 1-.2-.511 1.19 1.19 0 0 1 .393-.853 6.448 6.448 0 0 1 3.965-1.906 6.85 6.85 0 0 1 3.62.442 4.736 4.736 0 0 1 2.539 2.548 7.239 7.239 0 0 1 .379 1.82 5.435 5.435 0 0 1 .026 1.378 5.905 5.905 0 0 1-.267 1l-.734 2.217a1.461 1.461 0 0 1-.289.571.5.5 0 0 1-.585.128 1.82 1.82 0 0 0 .026-.735.621.621 0 0 0-.49-.494c-.271-.029-.5.181-.758.271a.933.933 0 0 1-1.178-.7 3.45 3.45 0 0 0-.068-.763c-.113-.279-.411-.425-.635-.625a1.462 1.462 0 0 1-.4-1.519c.06-.184.229-.268.2-.48-.044-.279-.454-.479-.69-.531z" class="cls-8" data-name="Path 377" transform="translate(-793.693 -98.666)"/>
    <path id="Rectangle_212" d="M0 0H33.153V36.361H0z" class="cls-2" data-name="Rectangle 212" transform="translate(67.776 32.482)"/>
    <path id="Rectangle_213" d="M0 0H33.153V36.361H0z" class="cls-3" data-name="Rectangle 213" transform="translate(71.118 29.006)"/>
    <path id="Path_378" d="M556 227.5v27.805h26.87" class="cls-3" data-name="Path 378" transform="translate(-481.674 -196.222)"/>
    <path id="Rectangle_214" d="M0 0H6.016V9.625H0z" class="cls-5" data-name="Rectangle 214" transform="translate(75.796 49.325)"/>
    <path id="Rectangle_215" d="M0 0H6.016V16.175H0z" class="cls-1" data-name="Rectangle 215" transform="translate(84.486 42.775)"/>
    <path id="Rectangle_216" d="M0 0H6.016V23.795H0z" class="cls-4" data-name="Rectangle 216" transform="translate(93.175 35.155)"/>
    <path id="Rectangle_217" d="M0 0H1.787V1.787H0z" class="cls-4" data-name="Rectangle 217" transform="translate(73.925 61.265)"/>
    <path id="Rectangle_218" d="M0 0H1.787V1.787H0z" class="cls-1" data-name="Rectangle 218" transform="translate(76.507 61.265)"/>
    <path id="Rectangle_219" d="M0 0H1.787V1.787H0z" class="cls-5" data-name="Rectangle 219" transform="translate(79.089 61.265)"/>
    <path id="Rectangle_220" d="M0 0H6.951V0.282H0z" class="cls-1" data-name="Rectangle 220" transform="translate(93.977 62.041)"/>
    <path id="Rectangle_221" d="M0 0H6.951V0.282H0z" class="cls-1" data-name="Rectangle 221" transform="translate(93.977 62.887)"/>
    <path id="Rectangle_222" d="M0 0H6.951V0.282H0z" class="cls-1" data-name="Rectangle 222" transform="translate(93.977 63.732)"/>
    <path id="Path_379" d="M748.448 212.267a2.483 2.483 0 0 1 2.323 2.764 3.893 3.893 0 0 1-2.271 3.487c-2.883 1.091-2.727-5.065-2.182-5.3a3.377 3.377 0 0 1 2.13-.951z" class="cls-6" data-name="Path 379" transform="translate(-651.622 -187.648)"/>
    <path id="Path_380" d="M1013.561 227.854l.857.416s1.87 3.818 1.948 4.364 1.325 2.571.857 3.117-1.169 1.948-.7 2.493a9.5 9.5 0 0 1 1.558 3.506c0 .779-1.169 2.883-.39 3.117s.545 3.273.39 3.506-2.182 4.052-2.182 4.052-.39-4.364-4.208-2.571c0 0-.312-2.182 0-2.338s1.091-1.091.468-1.247-1.48-2.026-1.325-2.26.545-.545.156-.779a2.791 2.791 0 0 1-.623-1.792c.078-.234-.857-1.325-.857-1.325z" class="cls-5" data-name="Path 380" transform="translate(-879.905 -201.153)"/>
</svg>
